<?xml version="1.0" encoding="utf-8"?>
<svg width="42px" height="42px" viewBox="0 0 42 42" version="1.1"
    xmlns:xlink="http://www.w3.org/1999/xlink"
    xmlns="http://www.w3.org/2000/svg">
    <desc>Created with Lunacy</desc>
    <g id="fb">
        <path d="M21 1.00015C32.0456 1.00015 41.0001 9.95425 41.0001 21C41.0001 32.0457 32.0456 41.0001 21 41.0001C9.95434 41.0001 0.999852 32.0457 0.999852 21C0.999852 9.95425 9.95434 1.00015 21 1.00015Z" id="Rectangle-2-copy-59" fill="#3B5998" stroke="none" />
        <path d="M13.5551 1.99574C13.5551 1.99574 10.6702 1.99174 10.6702 1.99174C7.42957 1.99174 5.33629 3.92683 5.33629 6.92251C5.33629 6.92251 5.33629 9.19586 5.33629 9.19586C5.33629 9.19586 2.43611 9.19586 2.43611 9.19586C2.18539 9.19586 1.98176 9.3785 1.98176 9.60576C1.98176 9.60576 1.98176 12.8991 1.98176 12.8991C1.98176 13.1248 2.18539 13.3074 2.43611 13.3074C2.43611 13.3074 5.33518 13.3074 5.33518 13.3074C5.33518 13.3074 5.33518 21.6201 5.33518 21.6201C5.33518 21.8458 5.53882 22.0294 5.78954 22.0294C5.78954 22.0294 9.57323 22.0294 9.57323 22.0294C9.82394 22.0294 10.0265 21.8455 10.0265 21.6201C10.0265 21.6201 10.0265 13.3074 10.0265 13.3074C10.0265 13.3074 13.4182 13.3074 13.4182 13.3074C13.6678 13.3074 13.8715 13.1248 13.8715 12.8991C13.8715 12.8991 13.8726 9.60576 13.8726 9.60576C13.8726 9.49721 13.8244 9.39266 13.7401 9.31639C13.6547 9.23892 13.5398 9.19586 13.4193 9.19586C13.4193 9.19586 10.0265 9.19586 10.0265 9.19586C10.0265 9.19586 10.0265 7.26876 10.0265 7.26876C10.0265 6.34255 10.2717 5.87208 11.6118 5.87208C11.6118 5.87208 13.5551 5.87148 13.5551 5.87148C13.8047 5.87148 14.0083 5.6885 14.0083 5.46281C14.0083 5.46281 14.0083 2.40442 14.0083 2.40442C14.0083 2.1787 13.8047 1.99574 13.5551 1.99574Z" transform="translate(13 9)" id="Forma-1-copy-5" fill="#FFFFFF" stroke="none" />
    </g>
</svg>