<?xml version="1.0" encoding="utf-8"?>
<svg width="166px" height="54px" viewBox="0 0 166 54" version="1.1"
    xmlns:xlink="http://www.w3.org/1999/xlink"
    xmlns="http://www.w3.org/2000/svg">
    <desc>Created with Lunacy</desc>
    <g id="Logo">
        <g id="Logo">
            <g id="SHOPPER">
                <g id="SH">
                    <path d="M2.06787 31.3784L2.06787 34.7622Q2.54639 35.0869 3.34106 35.3518Q4.13574 35.6167 5.02441 35.7961Q5.91309 35.9756 6.76758 36.0696Q7.62207 36.1636 8.20313 36.1636Q9.94629 36.1636 11.5186 35.8132Q13.0908 35.4629 14.2957 34.6768Q15.5005 33.8906 16.2097 32.6345Q16.9189 31.3784 16.9189 29.5669Q16.9189 28.1997 16.3977 27.1401Q15.8765 26.0806 14.9878 25.209Q14.0991 24.3374 12.9199 23.6196Q11.7407 22.9019 10.4248 22.2524Q9.14307 21.6201 8.1604 21.0903Q7.17773 20.5605 6.49414 19.9966Q5.81055 19.4326 5.46021 18.749Q5.10986 18.0654 5.10986 17.1255Q5.10986 16.1172 5.57129 15.4165Q6.03271 14.7158 6.76758 14.2715Q7.50244 13.8272 8.44238 13.6306Q9.38232 13.4341 10.3223 13.4341Q13.7231 13.4341 15.8936 14.938L15.8936 11.708Q14.2358 10.8364 10.6128 10.8364Q9.02344 10.8364 7.4939 11.2295Q5.96436 11.6226 4.76807 12.4258Q3.57178 13.229 2.83691 14.468Q2.10205 15.707 2.10205 17.3818Q2.10205 18.749 2.57202 19.7659Q3.04199 20.7827 3.8623 21.5859Q4.68262 22.3892 5.79346 23.0557Q6.9043 23.7222 8.18604 24.3716Q9.39941 24.9868 10.4504 25.5422Q11.5015 26.0977 12.2705 26.7043Q13.0396 27.311 13.4753 28.0459Q13.9111 28.7808 13.9111 29.772Q13.9111 31.6177 12.6038 32.6003Q11.2964 33.583 8.64746 33.583Q7.87842 33.583 6.97266 33.4292Q6.06689 33.2754 5.16968 32.9934Q4.27246 32.7114 3.46069 32.3013Q2.64893 31.8911 2.06787 31.3784ZM37.3584 35.7534L40.2295 35.7534L40.2295 11.2466L37.3584 11.2466L37.3584 21.9961L24.6777 21.9961L24.6777 11.2466L21.8066 11.2466L21.8066 35.7534L24.6777 35.7534L24.6777 24.5767L37.3584 24.5767L37.3584 35.7534Z" />
                </g>
                <g id="O" fill="#8BC34A">
                    <path d="M56.5332 36.1636Q51.3208 36.1636 48.1848 32.7285Q45.0488 29.2935 45.0488 23.7905Q45.0488 17.8774 48.2446 14.3569Q51.4404 10.8364 56.9434 10.8364Q62.019 10.8364 65.1208 14.2544Q68.2227 17.6724 68.2227 23.1924Q68.2227 29.1909 65.0439 32.6772Q61.8652 36.1636 56.5332 36.1636ZM56.7383 13.4341Q52.876 13.4341 50.4663 16.2197Q48.0566 19.0054 48.0566 23.5342Q48.0566 28.063 50.4065 30.823Q52.7563 33.583 56.5332 33.583Q60.5664 33.583 62.8906 30.9512Q65.2148 28.3193 65.2148 23.5854Q65.2148 18.7319 62.959 16.083Q60.7031 13.4341 56.7383 13.4341Z" />
                </g>
                <g id="PPER">
                    <path d="M75.9131 35.7534L75.9131 26.4907L79.1431 26.4907Q83.2275 26.4907 85.6287 24.269Q88.0298 22.0474 88.0298 18.561Q88.0298 15.0747 85.8679 13.1606Q83.7061 11.2466 79.7754 11.2466L73.042 11.2466L73.042 35.7534L75.9131 35.7534ZM95.5151 35.7534L95.5151 26.4907L98.7451 26.4907Q102.83 26.4907 105.231 24.269Q107.632 22.0474 107.632 18.561Q107.632 15.0747 105.47 13.1606Q103.308 11.2466 99.3774 11.2466L92.644 11.2466L92.644 35.7534L95.5151 35.7534ZM125.234 35.7534L112.246 35.7534L112.246 11.2466L124.688 11.2466L124.688 13.8442L115.117 13.8442L115.117 21.9961L123.97 21.9961L123.97 24.5767L115.117 24.5767L115.117 33.1558L125.234 33.1558L125.234 35.7534ZM144.102 35.7534L147.52 35.7534L142.922 28.3877Q142.427 27.5845 142.025 26.9778Q141.624 26.3711 141.213 25.8926Q140.803 25.4141 140.35 25.0637Q139.897 24.7134 139.282 24.4399L139.282 24.3716Q140.53 24.0469 141.53 23.4573Q142.529 22.8677 143.239 22.0303Q143.948 21.1929 144.332 20.1248Q144.717 19.0566 144.717 17.7749Q144.717 16.1343 144.153 14.9124Q143.589 13.6904 142.589 12.8701Q141.589 12.0498 140.231 11.6482Q138.872 11.2466 137.266 11.2466L129.951 11.2466L129.951 35.7534L132.822 35.7534L132.822 25.3286L135.181 25.3286Q135.984 25.3286 136.625 25.5251Q137.266 25.7217 137.821 26.1489Q138.376 26.5762 138.906 27.2512Q139.436 27.9263 140 28.8833L144.102 35.7534ZM75.9131 23.8931L75.9131 13.8442L79.2798 13.8442Q85.022 13.8442 85.022 18.6978Q85.022 21.1758 83.4583 22.5344Q81.8945 23.8931 78.9209 23.8931L75.9131 23.8931ZM95.5151 23.8931L95.5151 13.8442L98.8818 13.8442Q104.624 13.8442 104.624 18.6978Q104.624 21.1758 103.06 22.5344Q101.497 23.8931 98.5229 23.8931L95.5151 23.8931ZM132.822 22.731L132.822 13.8442L136.753 13.8442Q139.163 13.8442 140.436 14.9465Q141.709 16.0488 141.709 18.0142Q141.709 19.1079 141.333 19.988Q140.957 20.8682 140.291 21.4749Q139.624 22.0815 138.71 22.4063Q137.795 22.731 136.719 22.731L132.822 22.731Z" />
                </g>
            </g>
            <g id="Smart-Marketplace" transform="translate(32 39)">
                <path d="M61.3477 12.2012L60 12.2012L57.3516 9.31836L57.3281 9.31836L57.3281 12.2012L56.3672 12.2012L56.3672 3.31836L57.3281 3.31836L57.3281 8.94922L57.3516 8.94922L59.8711 6.20117L61.1309 6.20117L58.3477 9.0957L61.3477 12.2012ZM80.6895 12.2012L79.7285 12.2012L79.7285 3.31836L80.6895 3.31836L80.6895 12.2012ZM0.708984 10.7012L0.708984 11.8613Q0.873047 11.9727 1.14551 12.0635Q1.41797 12.1543 1.72266 12.2158Q2.02734 12.2773 2.32031 12.3096Q2.61328 12.3418 2.8125 12.3418Q3.41016 12.3418 3.94922 12.2217Q4.48828 12.1016 4.90137 11.832Q5.31445 11.5625 5.55762 11.1318Q5.80078 10.7012 5.80078 10.0801Q5.80078 9.61133 5.62207 9.24805Q5.44336 8.88477 5.13867 8.58594Q4.83398 8.28711 4.42969 8.04102Q4.02539 7.79492 3.57422 7.57227Q3.13477 7.35547 2.79785 7.17383Q2.46094 6.99219 2.22656 6.79883Q1.99219 6.60547 1.87207 6.37109Q1.75195 6.13672 1.75195 5.81445Q1.75195 5.46875 1.91016 5.22852Q2.06836 4.98828 2.32031 4.83594Q2.57227 4.68359 2.89453 4.61621Q3.2168 4.54883 3.53906 4.54883Q4.70508 4.54883 5.44922 5.06445L5.44922 3.95703Q4.88086 3.6582 3.63867 3.6582Q3.09375 3.6582 2.56934 3.79297Q2.04492 3.92774 1.63477 4.20313Q1.22461 4.47852 0.972656 4.90332Q0.720703 5.32813 0.720703 5.90234Q0.720703 6.37109 0.881836 6.71973Q1.04297 7.06836 1.32422 7.34375Q1.60547 7.61914 1.98633 7.84766Q2.36719 8.07617 2.80664 8.29883Q3.22266 8.50977 3.58301 8.7002Q3.94336 8.89063 4.20703 9.09863Q4.4707 9.30664 4.62012 9.55859Q4.76953 9.81055 4.76953 10.1504Q4.76953 10.7832 4.32129 11.1201Q3.87305 11.457 2.96484 11.457Q2.70117 11.457 2.39063 11.4043Q2.08008 11.3516 1.77246 11.2549Q1.46484 11.1582 1.18652 11.0176Q0.908203 10.877 0.708984 10.7012ZM43.0313 12.2012L44.0098 12.2012L44.0098 3.79883L42.7793 3.79883L40.1484 9.63477Q39.9961 9.97461 39.7441 10.666L39.709 10.666Q39.6211 10.332 39.3223 9.6582L36.7441 3.79883L35.4434 3.79883L35.4434 12.2012L36.3926 12.2012L36.3926 6.57617Q36.3926 5.43359 36.3457 4.92969L36.3691 4.92969Q36.498 5.50977 36.6211 5.79102L39.4863 12.2012L39.9668 12.2012L42.8379 5.74414Q42.9492 5.49805 43.0898 4.92969L43.1133 4.92969Q43.0313 5.89648 43.0313 6.56445L43.0313 12.2012ZM30.7441 12.1426Q30.4043 12.3301 29.8477 12.3301Q28.2715 12.3301 28.2715 10.5723L28.2715 7.02148L27.2402 7.02148L27.2402 6.20117L28.2715 6.20117L28.2715 4.73633L29.2324 4.42578L29.2324 6.20117L30.7441 6.20117L30.7441 7.02148L29.2324 7.02148L29.2324 10.4023Q29.2324 11.0059 29.4375 11.2637Q29.6426 11.5215 30.1172 11.5215Q30.4805 11.5215 30.7441 11.3223L30.7441 12.1426ZM71.3906 12.1426Q71.0508 12.3301 70.4941 12.3301Q68.918 12.3301 68.918 10.5723L68.918 7.02148L67.8867 7.02148L67.8867 6.20117L68.918 6.20117L68.918 4.73633L69.8789 4.42578L69.8789 6.20117L71.3906 6.20117L71.3906 7.02148L69.8789 7.02148L69.8789 10.4023Q69.8789 11.0059 70.084 11.2637Q70.2891 11.5215 70.7637 11.5215Q71.127 11.5215 71.3906 11.3223L71.3906 12.1426ZM14.9063 12.2012L15.8672 12.2012L15.8672 8.50391Q15.8672 6.06055 13.8867 6.06055Q12.5625 6.06055 11.8945 7.30273Q11.7246 6.74609 11.2676 6.40332Q10.8105 6.06055 10.1953 6.06055Q8.9707 6.06055 8.33203 7.15039L8.30859 7.15039L8.30859 6.20117L7.34766 6.20117L7.34766 12.2012L8.30859 12.2012L8.30859 8.7793Q8.30859 7.92969 8.71875 7.39941Q9.12891 6.86914 9.76172 6.86914Q11.127 6.86914 11.127 8.63867L11.127 12.2012L12.0879 12.2012L12.0879 8.7793Q12.0879 7.99414 12.5186 7.43164Q12.9492 6.86914 13.5645 6.86914Q14.291 6.86914 14.5986 7.31445Q14.9063 7.75977 14.9063 8.75586L14.9063 12.2012ZM21.9785 12.2012L21.0176 12.2012L21.0176 11.2637L20.9941 11.2637Q20.3672 12.3418 19.1484 12.3418Q18.252 12.3418 17.7451 11.8672Q17.2383 11.3926 17.2383 10.6074Q17.2383 8.92578 19.2188 8.65039L21.0176 8.39844Q21.0176 6.86914 19.7813 6.86914Q18.6973 6.86914 17.8242 7.60742L17.8242 6.62305Q18.709 6.06055 19.8633 6.06055Q21.9785 6.06055 21.9785 8.29883L21.9785 12.2012ZM50.3848 12.2012L49.4238 12.2012L49.4238 11.2637L49.4004 11.2637Q48.7734 12.3418 47.5547 12.3418Q46.6582 12.3418 46.1514 11.8672Q45.6445 11.3926 45.6445 10.6074Q45.6445 8.92578 47.625 8.65039L49.4238 8.39844Q49.4238 6.86914 48.1875 6.86914Q47.1035 6.86914 46.2305 7.60742L46.2305 6.62305Q47.1152 6.06055 48.2695 6.06055Q50.3848 6.06055 50.3848 8.29883L50.3848 12.2012ZM62.918 9.44141L67.1543 9.44141L67.1543 8.9375Q67.1543 7.58398 66.5098 6.82227Q65.8652 6.06055 64.6875 6.06055Q63.5098 6.06055 62.7158 6.94238Q61.9219 7.82422 61.9219 9.22461Q61.9219 10.707 62.6484 11.5244Q63.375 12.3418 64.6465 12.3418Q65.9473 12.3418 66.7383 11.7676L66.7383 10.8652Q65.8887 11.5332 64.875 11.5332Q63.9727 11.5332 63.457 10.9883Q62.9414 10.4434 62.918 9.44141ZM73.6348 11.334L73.6582 11.334Q74.291 12.3418 75.457 12.3418Q76.7285 12.3418 77.4609 11.4365Q78.1934 10.5313 78.1934 9.02539Q78.1934 7.67188 77.543 6.86621Q76.8926 6.06055 75.7324 6.06055Q74.3672 6.06055 73.6582 7.25586L73.6348 7.25586L73.6348 6.20117L72.6738 6.20117L72.6738 14.9609L73.6348 14.9609L73.6348 11.334ZM85.9688 12.2012L86.9297 12.2012L86.9297 8.29883Q86.9297 6.06055 84.8145 6.06055Q83.6602 6.06055 82.7754 6.62305L82.7754 7.60742Q83.6484 6.86914 84.7324 6.86914Q85.9688 6.86914 85.9688 8.39844L84.1699 8.65039Q82.1895 8.92578 82.1895 10.6074Q82.1895 11.3926 82.6963 11.8672Q83.2031 12.3418 84.0996 12.3418Q85.3184 12.3418 85.9453 11.2637L85.9688 11.2637L85.9688 12.2012ZM92.8301 11.9258Q92.1387 12.3418 91.1895 12.3418Q89.9063 12.3418 89.1182 11.5068Q88.3301 10.6719 88.3301 9.3418Q88.3301 7.85938 89.1797 6.95996Q90.0293 6.06055 91.4473 6.06055Q92.2383 6.06055 92.8418 6.35352L92.8418 7.33789Q92.1738 6.86914 91.4121 6.86914Q90.4922 6.86914 89.9033 7.52832Q89.3145 8.1875 89.3145 9.25977Q89.3145 10.3145 89.8682 10.9238Q90.4219 11.5332 91.3535 11.5332Q92.1387 11.5332 92.8301 11.0117L92.8301 11.9258ZM94.8691 9.44141L99.1055 9.44141L99.1055 8.9375Q99.1055 7.58398 98.4609 6.82227Q97.8164 6.06055 96.6387 6.06055Q95.4609 6.06055 94.667 6.94238Q93.873 7.82422 93.873 9.22461Q93.873 10.707 94.5996 11.5244Q95.3262 12.3418 96.5977 12.3418Q97.8984 12.3418 98.6895 11.7676L98.6895 10.8652Q97.8398 11.5332 96.8262 11.5332Q95.9238 11.5332 95.4082 10.9883Q94.8926 10.4434 94.8691 9.44141ZM26.1914 6.98047Q26.666 6.98047 26.918 7.17383L26.918 6.17773Q26.7188 6.0957 26.3438 6.0957Q25.8223 6.0957 25.4004 6.4502Q24.9785 6.80469 24.7734 7.4375L24.75 7.4375L24.75 6.20117L23.7891 6.20117L23.7891 12.2012L24.75 12.2012L24.75 9.14258Q24.75 8.14063 25.1631 7.56055Q25.5762 6.98047 26.1914 6.98047ZM54.5977 6.98047Q55.0723 6.98047 55.3242 7.17383L55.3242 6.17773Q55.125 6.0957 54.75 6.0957Q54.2285 6.0957 53.8066 6.4502Q53.3848 6.80469 53.1797 7.4375L53.1563 7.4375L53.1563 6.20117L52.1953 6.20117L52.1953 12.2012L53.1563 12.2012L53.1563 9.14258Q53.1563 8.14063 53.5693 7.56055Q53.9824 6.98047 54.5977 6.98047ZM65.7686 7.33203Q66.1641 7.79492 66.1699 8.62695L62.9297 8.62695Q63.041 7.8418 63.5156 7.35547Q63.9902 6.86914 64.6699 6.86914Q65.373 6.86914 65.7686 7.33203ZM73.6348 9.75195L73.6348 8.91406Q73.6348 8.03516 74.1445 7.45215Q74.6543 6.86914 75.4922 6.86914Q76.2832 6.86914 76.7461 7.4375Q77.209 8.00586 77.209 9.00781Q77.209 10.1973 76.7139 10.8652Q76.2188 11.5332 75.3457 11.5332Q74.6016 11.5332 74.1182 11.0146Q73.6348 10.4961 73.6348 9.75195ZM97.7197 7.33203Q98.1152 7.79492 98.1211 8.62695L94.8809 8.62695Q94.9922 7.8418 95.4668 7.35547Q95.9414 6.86914 96.6211 6.86914Q97.3242 6.86914 97.7197 7.33203ZM21.0176 9.16602L19.5703 9.36523Q18.9023 9.45898 18.5625 9.69629Q18.2227 9.93359 18.2227 10.5371Q18.2227 10.9766 18.5361 11.2549Q18.8496 11.5332 19.3711 11.5332Q20.0859 11.5332 20.5518 11.0322Q21.0176 10.5313 21.0176 9.76367L21.0176 9.16602ZM49.4238 9.16602L47.9766 9.36523Q47.3086 9.45898 46.9688 9.69629Q46.6289 9.93359 46.6289 10.5371Q46.6289 10.9766 46.9424 11.2549Q47.2559 11.5332 47.7773 11.5332Q48.4922 11.5332 48.958 11.0322Q49.4238 10.5313 49.4238 9.76367L49.4238 9.16602ZM84.5215 9.36523L85.9688 9.16602L85.9688 9.76367Q85.9688 10.5313 85.5029 11.0322Q85.0371 11.5332 84.3223 11.5332Q83.8008 11.5332 83.4873 11.2549Q83.1738 10.9766 83.1738 10.5371Q83.1738 9.93359 83.5137 9.69629Q83.8535 9.45898 84.5215 9.36523Z" />
            </g>
        </g>
    </g>
</svg>