<?xml version="1.0" encoding="utf-8"?>
<svg width="42px" height="43px" viewBox="0 0 42 43" version="1.1"
    xmlns:xlink="http://www.w3.org/1999/xlink"
    xmlns="http://www.w3.org/2000/svg">
    <desc>Created with Lunacy</desc>
    <g id="G+">
        <path d="M21.0005 1.98995C32.0461 1.98995 40.9995 10.9444 40.9995 21.9901C40.9995 33.0358 32.0461 41.9899 21.0005 41.9899C9.95484 41.9899 1.00031 33.0358 1.00031 21.9901C1.00031 10.9444 9.95484 1.98995 21.0005 1.98995Z" id="Rectangle-2-copy-59" fill="#DC4E41" stroke="none" />
        <path d="M12.6422 9.89941L21.9536 9.89941L21.9536 13.0107C21.0285 17.5755 16.8036 21.0115 11.9766 21.0115C6.46633 21.0115 1.99949 16.534 1.99949 11.0104C1.99949 5.48709 6.46633 1.00926 11.9766 1.00956C14.695 1.00956 17.1583 2.09965 18.9582 3.86717L16.7051 6.32224C15.4997 5.10025 13.8268 4.34318 11.9766 4.34318C8.30345 4.34318 5.32556 7.32808 5.32556 11.0104C5.32556 14.6927 8.30345 17.6779 11.9766 17.6779C14.9545 17.6779 17.4758 15.7158 18.3232 13.0107L12.6422 13.0107L12.6422 9.89941ZM26.0953 9.89386L28.0003 9.89386L28.0003 11.5304L26.0953 11.5304L26.0953 13.44L24.463 13.44L24.463 11.5304L22.558 11.5304L22.558 9.89386L24.463 9.89386L24.463 7.98459L26.0953 7.98459L26.0953 9.89386Z" transform="translate(6 10)" id="Combined-shape-8852" fill="#FFFFFF" fill-rule="evenodd" stroke="none" />
    </g>
</svg>