<?xml version="1.0" encoding="utf-8"?>
<svg width="18px" height="17px" viewBox="0 0 18 17" version="1.1" xmlns:xlink="http://www.w3.org/1999/xlink" xmlns="http://www.w3.org/2000/svg">
  <desc>Created with Lunacy</desc>
  <path d="M16.361 0.64238C15.9318 0.21402 15.4194 0 14.8227 0L2.18087 0C1.58311 0 1.06964 0.21402 0.642642 0.64238C0.214578 1.0698 0 1.58272 0 2.18018L0 14.8197C0 15.4168 0.214578 15.9298 0.642642 16.3578C1.06964 16.7855 1.58311 16.9999 2.18087 16.9999L14.8227 16.9999C15.4194 16.9999 15.9318 16.7855 16.361 16.3578C16.789 15.9298 17.0014 15.4168 17.0014 14.8197L17.0014 2.18018C17.0014 1.58272 16.789 1.0701 16.361 0.64238ZM14.8545 5.02456C15.0023 4.87726 15.0767 4.69616 15.0767 4.48244L15.0767 2.6562C15.0767 2.44986 15.0023 2.2709 14.8545 2.1196C14.7078 1.96832 14.5271 1.89268 14.3125 1.89268L12.3868 1.89268C12.1722 1.89268 11.9915 1.96832 11.8448 2.1196C11.697 2.2709 11.6237 2.44986 11.6237 2.6562L11.6237 4.48244C11.6237 4.69616 11.697 4.87726 11.8448 5.02456C11.9915 5.17216 12.1722 5.24596 12.3868 5.24596L14.3125 5.24596C14.5271 5.24596 14.7078 5.17216 14.8545 5.02456ZM8.5122 5.1574C7.57504 5.1574 6.77363 5.48028 6.1047 6.12572C5.43686 6.77148 5.10294 7.5516 5.10294 8.46672C5.10294 9.38154 5.43686 10.1617 6.1047 10.8071C6.77363 11.4529 7.57504 11.7757 8.5122 11.7757C9.45813 11.7757 10.2628 11.4529 10.9306 10.8071C11.5996 10.1617 11.9324 9.38154 11.9324 8.46672C11.9324 7.5516 11.5996 6.77148 10.9306 6.12572C10.2628 5.48028 9.45703 5.1574 8.5122 5.1574ZM15.0767 14.3658C15.0767 14.5574 15.0099 14.7176 14.8786 14.8467C14.7439 14.9762 14.5863 15.0408 14.4012 15.0408L2.56843 15.0408C2.37684 15.0408 2.2159 14.9762 2.08671 14.8467C1.95754 14.7182 1.89294 14.5574 1.89294 14.3658L1.89294 7.19366L3.45414 7.19366C3.30634 7.65862 3.2319 8.142 3.2319 8.64354C3.2319 10.0605 3.74974 11.2684 4.78216 12.2683C5.81566 13.268 7.05938 13.7683 8.5122 13.7683C9.47237 13.7683 10.3581 13.5392 11.1693 13.082C11.9806 12.6241 12.6232 12.0027 13.0951 11.217C13.567 10.431 13.8035 9.5731 13.8035 8.64354C13.8035 8.142 13.7301 7.65862 13.5823 7.19366L15.0767 7.19366L15.0767 14.3658Z" id="Combined-shape-2629" fill="#8BC34A" fill-rule="evenodd" stroke="none" />
</svg>