<?xml version="1.0" encoding="utf-8"?>
<svg width="16px" height="18px" viewBox="0 0 16 18" version="1.1" xmlns:xlink="http://www.w3.org/1999/xlink" xmlns="http://www.w3.org/2000/svg">
  <desc>Created with Lunacy</desc>
  <path d="M2.72383 10.3911C3.65771 8.85544 2.42385 8.51842 2.23007 7.40619C1.43851 2.85734 7.87057 -0.248731 11.2393 2.92897C13.5702 5.13007 12.0353 11.8982 8.27675 11.1937C4.67809 10.5224 10.0394 5.13562 7.1677 4.07843C4.83355 3.21834 3.59311 6.70661 4.69998 8.4403C4.05075 11.4218 2.65157 14.2296 3.2187 17.9667C5.05361 16.729 5.67327 14.3566 6.18128 11.8828C7.1031 12.4046 7.59687 12.9464 8.77271 13.031C13.1093 13.3434 15.5332 9.00273 14.9387 4.99631C14.4132 1.44468 10.6087 -0.363417 6.54913 0.0609191C3.33912 0.394879 0.141157 2.80843 0.00650381 6.25953C-0.0734292 8.36651 0.569227 9.94706 2.72383 10.3911Z" id="Forma-1-copy-4" fill="#8BC34A" fill-rule="evenodd" stroke="none" />
</svg>