<?xml version="1.0" encoding="utf-8"?>
<svg width="29px" height="27px" viewBox="0 0 29 27" version="1.1"
    xmlns:xlink="http://www.w3.org/1999/xlink"
    xmlns="http://www.w3.org/2000/svg">
    <desc>Created with Lunacy</desc>
    <path d="M14.0005 26.0004C14.0005 26.0004 12.0408 24.0219 12.0408 24.0219C4.76135 17.522 5.96046e-08 13.1413 5.96046e-08 7.77177C5.96046e-08 3.39144 3.36 -1.19209e-07 7.69984 -1.19209e-07C10.08 -1.19209e-07 12.4612 1.1307 14.0005 2.96739C15.5398 1.1307 17.9211 -1.19209e-07 20.3001 -1.19209e-07C24.64 -1.19209e-07 28.0011 3.39144 28.0011 7.77177C28.0011 13.1413 23.2408 17.522 15.9603 24.0219C15.9603 24.0219 14.0005 26.0004 14.0005 26.0004Z" id="shortlist-icon" fill="#C8C8C8" stroke="none" />
</svg>