<?xml version="1.0" encoding="utf-8"?>
<svg width="390px" height="282px" viewBox="0 0 390 282" version="1.1"
    xmlns:xlink="http://www.w3.org/1999/xlink"
    xmlns="http://www.w3.org/2000/svg">
    <desc>Created with Lunacy</desc>
    <defs>
        <path d="M12.3408 5.8342L47.0082 5.8342L44.8624 18.8664C44.3949 21.6877 41.7213 23.9786 38.889 23.9786L15.4271 23.9786L16.0511 27.6532L45.7273 27.6532L45.7273 30.2427C45.7273 31.6784 44.5799 32.8367 43.1621 32.8367L12.7963 32.8367C12.2072 32.8367 11.65 32.3626 11.5503 31.7771L7.02765 5.18415L0 5.18415L0 2.59285C0 1.16019 1.14628 0 2.56408 0L11.3478 0L12.3408 5.8342ZM36.1115 44.9882C33.6646 44.9882 31.6807 42.9808 31.6807 40.5067C31.6807 38.0329 33.6646 36.0233 36.1115 36.0233C38.5606 36.0233 40.5488 38.0329 40.5488 40.5067C40.5488 42.9808 38.5606 44.9882 36.1115 44.9882ZM20.726 36.0255C23.1751 36.0255 25.1589 38.0316 25.1589 40.5067C25.1589 42.983 23.1751 44.9904 20.726 44.9904C18.2769 44.9904 16.292 42.983 16.292 40.5067C16.292 38.0316 18.2769 36.0255 20.726 36.0255Z" transform="translate(0.995477 95.00434)" id="path_1" />
    </defs>
    <g id="illustration" transform="translate(1 1)">
        <path d="M109.98 0.803136C110.556 1.37478 110.822 2.13618 110.782 2.88458C110.785 2.9289 110.789 2.9726 110.789 3.01719L110.789 18.64C110.789 20.155 109.552 21.3832 108.026 21.3832C106.498 21.3832 105.261 20.155 105.261 18.64L105.261 9.36583L75.9837 38.4225C74.9031 39.4938 73.1525 39.4938 72.0741 38.4225L61.7686 28.1962L14.0356 75.5694C13.4948 76.1051 12.7886 76.3726 12.0802 76.3726C11.373 76.3726 10.6657 76.1051 10.1261 75.57C9.04647 74.4983 9.04647 72.7616 10.1261 71.6903L59.8155 22.3777C60.3322 21.8632 61.035 21.5742 61.7686 21.5742C62.5021 21.5742 63.205 21.8632 63.7228 22.3777L74.0284 32.6039L101.353 5.48605L91.0265 5.48605C89.5004 5.48605 88.2631 4.25794 88.2631 2.74289C88.2631 1.22784 89.5004 0 91.0265 0L107.749 0C107.795 0 107.837 0.00453901 107.882 0.00640798C108.637 -0.032307 109.404 0.231489 109.98 0.803136ZM5.52775 83.2009C5.52775 81.6859 4.29062 80.4577 2.7645 80.4577C1.23724 80.4577 0 81.6859 0 83.2009C0 84.7157 1.23724 85.9438 2.7645 85.9438C4.29062 85.9438 5.52775 84.7157 5.52775 83.2009Z" transform="translate(125.7708 75.99778)" id="Combined-shape-1864" fill="#8BC34A" fill-rule="evenodd" stroke="none" />
        <path d="M38.4971 23.0132C42.2161 18.5345 44.7156 8.56941 45.8006 3.64511L46.614 0L33.0328 5.85511C31.8121 6.26249 30.6122 6.04915 29.5841 5.44792C27.3562 4.0328 24.722 3.83876 22.3004 4.84708L15.0143 8.0848C13.3874 8.89899 12.1853 10.3144 11.7791 12.137C11.5853 13.9592 11.9729 15.7818 13.1936 17.1969C15.4599 19.6978 19.0838 22.1991 21.7376 23.8859C8.87347 30.6907 0 50.4082 0 64.0766C0 81.0601 13.9874 94.9997 30.9987 94.9997C48.2234 94.9997 61.9984 81.0601 61.9984 64.0766C61.9984 49.7683 52.2721 28.8684 38.4971 23.0132ZM15.8081 13.145C15.6143 13.7462 15.8081 14.347 16.2164 14.7541C18.89 17.7591 23.9272 20.8614 26.0972 22.0825C27.6858 21.6369 29.3334 21.4042 30.9987 21.4042C32.2391 21.4042 33.4401 21.5204 34.6422 21.7726L34.6422 21.4042C36.268 21.2104 39.0981 14.5407 41.1323 6.64999L34.6422 9.48081C32.2194 10.4888 29.5841 10.2951 27.55 8.87968C26.523 8.27884 25.1096 8.0848 24.1013 8.68564L16.8164 11.9236C16.2164 12.137 15.8081 12.7378 15.8081 13.145ZM30.9987 91.1612C16.0029 91.1612 3.85594 79.0245 3.85594 64.0766C3.85594 49.1284 16.2164 25.2623 30.9987 25.2623C45.782 25.2623 58.1425 49.1093 58.1425 64.0766C58.1425 79.0245 45.9944 91.1612 30.9987 91.1612ZM33.0142 55.5846C36.0556 56.1859 38.2847 57.1938 39.5043 58.4155C40.9188 59.6366 41.5396 61.2457 41.5581 63.6691C41.5581 65.8794 40.7447 67.702 39.1364 69.1174C37.5292 70.5326 35.494 71.3471 32.8588 71.5409L32.8588 74.3714L30.2246 74.3714L30.2246 71.5409C26.5613 71.1337 23.5199 69.7183 20.692 67.2948L23.5199 63.8632C25.7479 65.6858 27.9759 66.8875 30.2049 67.2948L30.2049 59.6172C27.3562 59.0164 25.1283 58.0081 23.7137 56.7867C22.2806 55.5653 21.6796 53.9368 21.6796 51.7265C21.6796 49.5165 22.4744 47.6939 24.1013 46.2784C25.7293 44.863 27.7635 44.0487 30.1852 43.8551L30.1852 41.8387L32.6069 41.8387L32.6069 43.8551C35.436 44.0487 38.0712 45.0765 40.7053 46.6856L38.2847 50.3303C36.6764 49.1093 34.6422 48.2947 32.8204 48.101L32.8204 55.5846L33.0142 55.5846ZM30.379 48.3141L30.379 54.9788C28.7643 54.5734 27.9734 54.1668 27.3562 53.5684C26.7551 53.1613 26.5427 52.3467 26.5427 51.5521C26.5427 50.5438 26.9489 49.943 27.55 49.3224C28.151 48.7213 28.9645 48.3141 30.379 48.3141ZM30.379 54.9788L30.379 54.9838L30.3987 54.9838L30.379 54.9788ZM32.6255 67.5274C34.0412 67.3142 34.8557 66.9072 35.6691 66.3063C36.4629 65.6858 36.6764 64.8908 36.6764 64.0956C36.6764 63.2817 36.4629 62.4675 35.8618 61.8662C35.2608 61.2654 34.2547 60.8583 32.6255 60.4511L32.6255 67.5274Z" transform="translate(326.001 -1.6E-05)" id="Combined-shape-1866" fill="#E0E0E0" fill-rule="evenodd" stroke="none" />
        <path d="M131.235 94.7319L125.173 94.7319L125.173 7.37418C125.173 3.30805 121.839 0 117.742 0L104.192 0C100.095 0 96.7622 3.30836 96.7622 7.37418L96.7622 94.7319L81.368 94.7319L81.368 46.954C81.368 42.8877 78.0353 39.5802 73.9373 39.5802L60.3879 39.5802C56.29 39.5802 52.9564 42.888 52.9564 46.954L52.9564 94.7319L37.5632 94.7319L37.5632 69.988C37.5632 65.9219 34.2305 62.6138 30.1338 62.6138L16.5832 62.6138C12.4863 62.6138 9.15266 65.9222 9.15266 69.988L9.15266 94.7319L2.76325 94.7319C1.23597 94.7319 0 95.9601 0 97.4751C0 98.9899 1.23597 100.218 2.76325 100.218L131.235 100.218C132.761 100.218 133.999 98.9899 133.999 97.4751C133.999 95.9601 132.761 94.7319 131.235 94.7319ZM102.29 94.7319L119.645 94.7319L119.645 7.37418C119.645 6.33295 118.791 5.4864 117.742 5.4864L104.192 5.4864C103.143 5.4864 102.29 6.33295 102.29 7.37418L102.29 94.7319ZM75.8403 94.7319L58.4852 94.7319L58.4852 46.954C58.4852 45.9129 59.338 45.066 60.3879 45.066L73.9373 45.066C74.9862 45.066 75.8403 45.9129 75.8403 46.954L75.8403 94.7319ZM14.6804 94.7319L32.0344 94.7319L32.0344 69.988C32.0344 68.9471 31.1815 68.1002 30.1326 68.1002L16.5821 68.1002C15.5332 68.1002 14.6804 68.9471 14.6804 69.988L14.6804 94.7319Z" transform="translate(123.001 111.7819)" id="Combined-shape-1865" fill="#757575" fill-rule="evenodd" stroke="none" />
        <g id="Combined-shape-1867">
            <use xlink:href="#path_1" fill="none" stroke="#E0E0E0" stroke-width="2" />
            <use stroke="none" fill="#E0E0E0" xlink:href="#path_1" fill-rule="evenodd" />
        </g>
        <path d="M54.6369 9.36199C42.1571 -3.12066 21.8515 -3.12066 9.3728 9.36199C4.99353 13.7414 1.99922 19.2436 0.710553 25.2739C-0.542959 31.145 -0.132443 37.2283 1.89844 42.8651C2.14263 43.5422 2.88927 43.8931 3.56696 43.6492C4.24356 43.4051 4.5939 42.6588 4.34978 41.9817C2.4842 36.8027 2.10646 31.2133 3.25824 25.8179C4.44171 20.281 7.19191 15.2276 11.2142 11.2046C22.6781 -0.262132 41.3316 -0.262132 52.7955 11.2046C58.2553 16.6655 61.3098 23.924 61.3997 31.6441C61.4894 39.35 58.6177 46.6667 53.3155 52.246C53.2531 52.3118 53.1907 52.3785 53.1294 52.4449C53.0199 52.5624 52.9093 52.6799 52.7955 52.7949C41.3316 64.2613 22.6781 64.2613 11.2142 52.7949C11.1541 52.734 11.0938 52.6716 11.0358 52.6095C11.0325 52.4892 11.0293 52.3705 11.0293 52.2537C11.0293 51.9914 11.0347 51.73 11.0446 51.4699C11.0478 51.3828 11.0534 51.2964 11.0588 51.2097C11.0676 51.0366 11.0752 50.8635 11.0873 50.6913C11.0961 50.5886 11.1059 50.4871 11.1157 50.3847C11.13 50.2294 11.1409 50.0745 11.1595 49.9197C11.1716 49.8106 11.1858 49.7023 11.2 49.5939C11.2176 49.4475 11.2361 49.3005 11.258 49.1544C11.2745 49.0434 11.2931 48.9333 11.3117 48.8226C11.3347 48.6805 11.3577 48.5382 11.384 48.3967C11.4048 48.2851 11.4288 48.1744 11.4507 48.0628C11.4792 47.9244 11.5055 47.7851 11.5372 47.6473C11.5624 47.5357 11.5898 47.4241 11.6171 47.3131C11.6489 47.1775 11.6817 47.0419 11.7168 46.9069C11.7463 46.7952 11.7781 46.6846 11.8088 46.5736C11.846 46.4407 11.8821 46.3075 11.9226 46.1756C11.9554 46.0649 11.9916 45.9552 12.0266 45.8451C12.0683 45.7144 12.1098 45.5837 12.1547 45.4543C12.1919 45.3451 12.2302 45.2365 12.2697 45.128C12.3156 44.9994 12.3628 44.8709 12.4109 44.7433C12.4525 44.6354 12.4941 44.5284 12.5379 44.4214C12.5882 44.2953 12.6397 44.1689 12.6934 44.0437C12.7383 43.9376 12.7842 43.8318 12.8302 43.7264C12.8861 43.6024 12.9419 43.4786 12.9988 43.3562C13.0481 43.2516 13.0985 43.148 13.1488 43.0444C13.2079 42.9223 13.2682 42.8009 13.3294 42.6803C13.382 42.5782 13.4357 42.4767 13.4893 42.3753C13.5539 42.2553 13.6185 42.136 13.6842 42.0173C13.74 41.9174 13.7959 41.8181 13.8539 41.7194C13.9217 41.6019 13.9918 41.4847 14.0619 41.3685C14.121 41.2707 14.1812 41.1735 14.2415 41.0763C14.3148 40.9614 14.3871 40.8469 14.4615 40.7335C14.525 40.6382 14.5885 40.5431 14.652 40.4491C14.7297 40.3359 14.8063 40.2243 14.8852 40.1129C14.952 40.0201 15.0166 39.9276 15.0845 39.8363C15.1654 39.7261 15.2487 39.6166 15.3319 39.5081C15.4009 39.4184 15.4698 39.3285 15.5388 39.2394C15.6253 39.1317 15.7128 39.025 15.8004 38.9189C15.8705 38.8319 15.9428 38.7449 16.015 38.6591C16.1059 38.5539 16.1957 38.4497 16.2887 38.3461C16.3632 38.2621 16.4377 38.1782 16.5132 38.0955C16.6073 37.9927 16.7026 37.8916 16.8 37.7904C16.8767 37.7099 16.9533 37.6286 17.031 37.5493C17.1296 37.4488 17.2303 37.3507 17.331 37.252C17.4109 37.1751 17.4887 37.097 17.5697 37.021C17.6737 36.923 17.7788 36.8273 17.885 36.7311C17.966 36.6579 18.0459 36.5838 18.1281 36.5118C18.2365 36.4156 18.3481 36.3221 18.4598 36.228C18.5408 36.1594 18.6218 36.0893 18.7039 36.0217C18.82 35.9276 18.9382 35.836 19.0554 35.7437C19.1375 35.6798 19.2196 35.6142 19.3028 35.5512C19.4254 35.4574 19.5524 35.3664 19.6783 35.2754C19.7582 35.2176 19.837 35.1585 19.9169 35.102C20.0571 35.0036 20.1983 34.9091 20.3417 34.8144C20.4119 34.7677 20.4808 34.7194 20.5509 34.6733C20.737 34.5527 20.9253 34.4359 21.1147 34.3212C21.1443 34.3031 21.1727 34.284 21.2023 34.2662C21.4223 34.1349 21.6446 34.0069 21.8712 33.8827C21.9478 33.8406 22.0267 33.8006 22.1055 33.7591C22.2544 33.6791 22.4044 33.5989 22.5566 33.522C22.6529 33.4731 22.7536 33.427 22.8522 33.3797C22.9759 33.3194 23.0996 33.2588 23.2244 33.2007C25.586 35.4565 28.7357 36.7336 32.0049 36.7336C35.274 36.7336 38.4238 35.4562 40.7853 33.2004C45.3945 35.3338 49.1672 39.1622 51.2146 43.8181C51.5036 44.4764 52.2733 44.7759 52.9323 44.4859C53.5903 44.1959 53.8892 43.4269 53.599 42.7686C51.3591 37.676 47.4593 33.6066 42.5228 31.15C43.9548 29.0485 44.7299 26.567 44.7299 24.0061C44.7299 16.988 39.0215 11.2783 32.0049 11.2783C31.2856 11.2783 30.702 11.8617 30.702 12.5812C30.702 13.3008 31.2856 13.8841 32.0049 13.8841C37.5852 13.8841 42.1243 18.425 42.1243 24.0061C42.1243 26.5017 41.1969 28.9049 39.5142 30.7723C39.5131 30.7723 39.5131 30.7727 39.5131 30.773C37.5906 32.9052 34.8536 34.1278 32.0049 34.1278C29.1551 34.1278 26.4191 32.9052 24.4977 30.773C24.4966 30.7723 24.4955 30.7723 24.4955 30.772C22.8128 28.904 21.8866 26.5017 21.8866 24.0064C21.8866 21.2822 22.9507 18.7266 24.8886 16.8106C25.3999 16.3044 25.4042 15.4794 24.8973 14.9684C24.3915 14.4564 23.5671 14.4524 23.0547 14.9582C20.621 17.3665 19.2798 20.5799 19.2798 24.0055C19.2798 26.5639 20.0527 29.0435 21.4837 31.1441C21.4705 31.1503 21.4574 31.157 21.4453 31.1638C21.3435 31.2145 21.245 31.2683 21.1443 31.3203C20.9899 31.4002 20.8344 31.4796 20.6823 31.5629C20.575 31.6213 20.4699 31.6832 20.3626 31.7431C20.2202 31.824 20.0779 31.9039 19.9378 31.987C19.8283 32.0518 19.721 32.1189 19.6137 32.185C19.479 32.268 19.3455 32.3507 19.2119 32.4359C19.1035 32.5057 18.9973 32.5774 18.89 32.6487C18.762 32.7342 18.6339 32.8203 18.5068 32.9086C18.4007 32.983 18.2945 33.0589 18.1893 33.1346C18.0656 33.2237 17.943 33.3138 17.8204 33.4051C17.7153 33.4836 17.6135 33.5629 17.5106 33.6426C17.3901 33.7354 17.2719 33.8289 17.1547 33.9239C17.0529 34.006 16.9522 34.0894 16.8526 34.1727C16.7365 34.2689 16.6227 34.3667 16.5088 34.4651C16.4103 34.5503 16.3128 34.6367 16.2165 34.7237C16.1037 34.8243 15.9942 34.9258 15.8848 35.0281C15.7906 35.1167 15.6954 35.2056 15.6023 35.2954C15.4939 35.4002 15.3877 35.5063 15.2804 35.6127C15.1896 35.7037 15.0998 35.7947 15.01 35.8867C14.9049 35.9961 14.802 36.1075 14.6991 36.2184C14.6126 36.3117 14.525 36.4042 14.4407 36.4986C14.3378 36.613 14.237 36.7301 14.1363 36.8467C14.0564 36.9405 13.9743 37.0337 13.8944 37.1284C13.7926 37.2508 13.6941 37.3756 13.5933 37.4999C13.52 37.5921 13.4433 37.6831 13.3711 37.7769C13.267 37.9116 13.1663 38.0487 13.0645 38.1856C12.9999 38.2716 12.9342 38.3562 12.8718 38.4429C12.7426 38.6209 12.6189 38.8018 12.4952 38.9832C12.4635 39.0309 12.4295 39.0773 12.3967 39.1256C12.2434 39.3547 12.0945 39.5868 11.9489 39.8215C11.8996 39.9024 11.8515 39.9851 11.8022 40.0665C11.7091 40.2224 11.6139 40.3786 11.5241 40.537C11.4672 40.6357 11.4135 40.7362 11.3599 40.8359C11.2799 40.9792 11.2 41.1218 11.1245 41.267C11.0676 41.375 11.0139 41.4835 10.9592 41.5917C10.888 41.7317 10.8179 41.8715 10.749 42.013C10.6953 42.1252 10.6439 42.239 10.5913 42.3522C10.5267 42.4918 10.4632 42.6314 10.4008 42.7722C10.3515 42.8885 10.3012 43.0053 10.253 43.1225C10.195 43.263 10.1359 43.4035 10.0789 43.5453C10.0319 43.6643 9.98698 43.7839 9.9421 43.9036C9.88844 44.0459 9.83588 44.1876 9.78441 44.331C9.74286 44.4524 9.70015 44.5745 9.65963 44.6966C9.61039 44.8402 9.56327 44.9844 9.51839 45.1292C9.47902 45.2522 9.44175 45.3758 9.40565 45.4994C9.36185 45.6458 9.31915 45.7925 9.27862 45.9395C9.24469 46.0637 9.21185 46.1883 9.17791 46.3131C9.14072 46.4619 9.10454 46.6114 9.06843 46.7611C9.03777 46.8863 9.00934 47.0112 8.98085 47.1369C8.94801 47.2885 8.91625 47.441 8.88558 47.5941C8.86151 47.719 8.83635 47.8445 8.81221 47.9699C8.78487 48.1258 8.75971 48.2826 8.73449 48.4397C8.71368 48.5637 8.69294 48.6873 8.67539 48.8112C8.65023 48.9733 8.63051 49.1363 8.61079 49.2989C8.59549 49.4198 8.57904 49.5403 8.56591 49.6614C8.54728 49.8321 8.53307 50.004 8.5177 50.1756C8.50791 50.2903 8.49581 50.4044 8.4871 50.5191C8.47391 50.711 8.46412 50.9038 8.45643 51.0966C8.45092 51.1922 8.4444 51.2876 8.43998 51.3835C8.42903 51.6725 8.42359 51.9628 8.42359 52.2547C8.42359 52.5692 8.43345 52.8669 8.44766 53.195C8.45092 53.2712 8.46187 53.345 8.47615 53.4173C8.47724 53.4228 8.47833 53.4284 8.47942 53.4342C8.49581 53.5052 8.5177 53.5732 8.54402 53.6393C8.54837 53.646 8.54946 53.6522 8.55279 53.659C8.58121 53.7241 8.61406 53.786 8.65241 53.8453C8.65676 53.8527 8.66118 53.8601 8.66662 53.8668C8.70497 53.925 8.74768 53.9797 8.79582 54.0304C8.79908 54.0341 8.80126 54.0387 8.80459 54.0424C8.80459 54.0424 8.97758 54.2254 8.97758 54.2254C9.10672 54.3644 9.23592 54.5031 9.37171 54.638C15.6111 60.8797 23.808 64.0005 32.0049 64.0005C40.2007 64.0005 48.3965 60.8797 54.6358 54.638C54.7716 54.5031 54.9019 54.3644 55.0311 54.2254C55.0311 54.2254 55.203 54.0424 55.203 54.0424C60.976 47.9681 64.1016 40.0032 64.0042 31.6146C63.9068 23.2094 60.5807 15.3066 54.6369 9.36199Z" transform="translate(317.9967 215.9982)" id="Forma-1" fill="#E0E0E0" stroke="none" />
    </g>
</svg>