<?xml version="1.0" encoding="utf-8"?>
<svg width="379px" height="241px" viewBox="0 0 379 241" version="1.1" xmlns:xlink="http://www.w3.org/1999/xlink" xmlns="http://www.w3.org/2000/svg">
  <desc>Created with Lunacy</desc>
  <g id="illustration">
    <path d="M162.451 82.2451C164.807 82.9836 166.883 84.0076 167.576 84.7726C168.177 85.4372 168.13 86.4546 167.469 87.0586C166.809 87.6614 165.789 87.6128 165.184 86.9482C164.804 86.5435 163.646 86.0251 162.271 85.5648C162.005 86.6957 161.535 87.7521 160.878 88.5943C159.988 89.7385 158.848 90.3477 157.624 90.3477C157.44 90.3477 157.255 90.3311 157.07 90.3052C154.769 89.9615 153.153 88.7075 152.635 86.8604C152.152 85.1463 152.759 83.218 154.141 82.0645C155.115 81.2508 156.921 81.1374 158.913 81.4227C158.547 80.6254 157.974 80.201 157.106 80.094C154.205 79.7214 150.609 81.4256 148.081 82.9812C148.923 86.7826 149.408 90.6773 149.408 94.6502C149.408 114.799 138.369 133.451 119.77 144.899L119.77 157.563C119.77 161.666 116.793 165 113.132 165L100.794 165C97.1324 165 94.1533 161.665 94.1533 157.563L94.1533 154.549C84.2736 156.344 74.6327 156.166 65.1746 154.219L65.1746 157.209C65.1746 161.311 62.1955 164.649 58.5345 164.649L46.197 164.649C42.5359 164.649 39.5569 161.311 39.5569 157.209L39.5569 143.664C33.6613 139.766 28.5671 135.122 24.3684 129.824L10.0427 129.824C4.50743 129.824 0 125.314 0 119.769L0 90.8132C0 85.2687 4.50743 80.7579 10.0427 80.7576L13.6601 80.7576C15.4358 73.937 18.4795 67.5271 22.7295 61.6486L14.1702 50.1712L16.766 48.2336C21.8624 44.4259 29.3883 44.3708 36.2801 47.9707C42.3476 43.4184 49.3588 39.8635 56.7882 37.4007C55.0825 33.9404 54.0961 30.0646 54.0961 25.9494C54.0961 11.6429 65.7241 0 80.017 0C94.3131 0 105.944 11.6429 105.944 25.9494C105.944 29.922 105.025 33.6682 103.425 37.0344C125.313 43.8789 141.694 60.1327 147.297 79.7047C150.074 78.1234 153.947 76.4447 157.505 76.8758C159.564 77.1283 161.143 78.3434 161.95 80.2943C162.198 80.9034 162.364 81.5615 162.451 82.2451ZM80.017 6.48396C90.7462 6.48396 99.4697 15.2168 99.4697 25.9525C99.4697 29.9576 98.2534 33.6837 96.1743 36.7787L96.0637 36.934C95.9762 37.0637 95.8766 37.1799 95.7846 37.3066C95.4134 37.822 95.0181 38.3174 94.6033 38.7872C94.4927 38.917 94.3766 39.04 94.2639 39.1667C93.8521 39.607 93.4252 40.0289 92.9818 40.4272C92.88 40.5147 92.7837 40.6086 92.6841 40.6958C91.5465 41.6711 90.317 42.5169 88.9988 43.2005C88.9539 43.2262 88.909 43.2461 88.8631 43.2687C88.2642 43.5769 87.6522 43.8483 87.0282 44.0916C86.8913 44.1464 86.7523 44.1919 86.6133 44.2438C86.0691 44.4444 85.5163 44.6134 84.9523 44.7623C84.7783 44.8074 84.6065 44.8558 84.4281 44.8982C83.8773 45.0248 83.3178 45.1214 82.7585 45.2063C82.5767 45.2322 82.4049 45.2678 82.2253 45.2874C81.4927 45.3687 80.7581 45.4207 80.0127 45.4207C79.2746 45.4207 78.5433 45.3724 77.8142 45.2874C77.662 45.2715 77.5132 45.2392 77.3577 45.2196C76.7686 45.1384 76.1862 45.0348 75.606 44.8988C75.4734 44.8696 75.3443 44.8305 75.2151 44.7982C74.6064 44.6396 74.0009 44.4615 73.4087 44.2445C73.3277 44.2119 73.24 44.1827 73.159 44.1538C70.3903 43.0972 67.8655 41.4155 65.8106 39.2184C65.7559 39.16 65.7066 39.1018 65.6519 39.0403C65.1887 38.5382 64.7552 38.0068 64.3469 37.4494C64.2472 37.3099 64.1367 37.1739 64.0359 37.0343L63.8619 36.794C61.7762 33.6936 60.5598 29.9668 60.5598 25.955C60.5708 15.2168 69.2921 6.48396 80.017 6.48396ZM113.132 141.283L114.856 140.281C132.438 130.107 142.93 113.046 142.942 94.645C142.942 71.0351 125.317 49.9274 99.831 42.6784C99.7325 42.7951 99.6229 42.8921 99.5256 43.0025C99.0538 43.5471 98.5622 44.0719 98.0465 44.5741C97.8517 44.7586 97.6523 44.9304 97.4509 45.1122C96.9812 45.5428 96.4984 45.9579 95.998 46.3531C95.7835 46.5184 95.5591 46.6801 95.3401 46.8456C95.1802 46.959 95.0291 47.082 94.8704 47.1952C99.9065 48.388 104.747 50.2026 109.234 52.6263C110.804 53.4751 111.393 55.4424 110.542 57.0168C109.956 58.1023 108.84 58.7152 107.69 58.7152C107.169 58.7152 106.64 58.5918 106.153 58.3261C98.4998 54.1884 89.6677 52.0012 80.6257 52.0012C72.0444 52.0012 63.6013 53.9839 56.2234 57.7364C54.6303 58.55 52.6815 57.915 51.8724 56.3138C51.0623 54.7198 51.6941 52.769 53.2902 51.9587C57.1363 50.0042 61.2408 48.4977 65.4888 47.4219C65.2325 47.25 64.996 47.0523 64.7508 46.8708C64.6108 46.7672 64.4749 46.6635 64.3349 46.5599C63.7601 46.119 63.206 45.6555 62.6685 45.1697C62.5294 45.043 62.3861 44.92 62.2514 44.7903C61.7105 44.2816 61.1948 43.7472 60.7033 43.1958C60.631 43.112 60.5412 43.0376 60.469 42.9532C52.4068 45.3966 44.8755 49.3235 38.5793 54.3887L36.7805 55.837L34.824 54.6024C31.014 52.1979 26.8318 51.2487 23.6361 52.0264L30.852 61.7082L29.3181 63.6623C24.3291 70.0041 20.9876 77.068 19.3859 84.6666L18.8407 87.2363L10.0427 87.2363C8.0754 87.2363 6.4758 88.8401 6.4758 90.8104L6.4758 119.767C6.4758 121.74 8.07764 123.341 10.0427 123.341L27.5785 123.341L28.5496 124.634C32.8303 130.341 38.2562 135.26 44.6751 139.248L46.6141 140.45L46.0284 143.156L46.0349 157.206C46.0349 157.799 46.2867 158.147 46.3776 158.208L58.5333 158.165C58.4982 158.158 58.5188 158.096 58.5558 157.986C58.6098 157.824 58.6986 157.558 58.6986 157.206L58.6986 145.936L62.7583 146.999C73.7097 149.874 85.0466 150.117 96.6549 147.414L100.629 146.487L100.629 157.56C100.629 158.149 100.878 158.496 100.968 158.558L112.995 158.516C113.105 158.399 113.293 158.068 113.293 157.56L113.132 141.283ZM39.2557 89.2508C42.2315 89.2508 44.6423 86.8367 44.6423 83.859C44.6423 80.8812 42.2315 78.4674 39.2557 78.4674C36.2812 78.4674 33.8694 80.8812 33.8694 83.859C33.8694 86.8367 36.2812 89.2508 39.2557 89.2508ZM158.324 86.6038C158.126 86.8498 157.871 87.093 157.54 87.0996C156.963 87.0119 155.967 86.7564 155.75 85.9817C155.611 85.4925 155.809 84.8865 156.145 84.5949C156.336 84.504 156.624 84.4618 156.997 84.4618C157.566 84.4618 158.314 84.5589 159.126 84.7241C158.961 85.4794 158.673 86.1502 158.324 86.6038Z" transform="translate(88.99933 67.99994)" id="Combined-shape-1859" fill="#757575" fill-rule="evenodd" stroke="none" />
    <path d="M6.88206 45.6881C6.8076 45.5989 6.71342 45.5199 6.63902 45.4313L2.80494 39.5584C1.02802 35.8982 0 31.7992 0 27.4462C0 12.3144 12.112 0 26.9982 0C41.8899 0 54.0052 12.3144 54.0052 27.4462C54.0052 31.6482 53.0473 35.6104 51.382 39.1712C50.8269 40.6223 50.4022 41.7736 47.6366 45.1404C47.5359 45.2641 47.4209 45.3664 47.3203 45.4833C46.8275 46.0592 46.3152 46.6143 45.7788 47.1454C45.5762 47.3406 45.3671 47.5229 45.158 47.7145C44.6697 48.1699 44.1661 48.609 43.6438 49.0272C43.4205 49.2022 43.1895 49.3732 42.9585 49.5478C42.7931 49.6681 42.6355 49.7982 42.4702 49.918C35.8367 54.0278 30.4754 55.0011 27.6332 55.0011C24.6258 55.0011 16.1124 52.6945 11.8657 50.1576C11.5996 49.9756 11.3533 49.7668 11.0971 49.5749C10.9515 49.4648 10.8103 49.3556 10.6657 49.2455C10.0647 48.7797 9.48774 48.2895 8.92825 47.7754C8.78373 47.6417 8.63592 47.5113 8.49363 47.3744C7.93085 46.8363 7.39443 46.2708 6.88206 45.6881ZM9.13297 43.5894C9.06731 43.5107 8.98299 43.4409 8.91734 43.3618L5.51571 38.1672C3.93917 34.9293 3.0261 31.3029 3.0261 27.4524C3.0261 14.0669 13.7739 3.17306 26.9818 3.17306C40.1952 3.17306 50.9441 14.0669 50.9441 27.4524C50.9441 31.1694 50.0956 34.6744 48.6165 37.8244C48.1238 39.1082 47.7473 40.1267 45.2937 43.1048C45.2051 43.2146 45.1021 43.3049 45.0124 43.4083C44.5755 43.9178 44.1212 44.4089 43.646 44.8788C43.4665 45.0513 43.2793 45.2121 43.0943 45.3821C42.6607 45.785 42.2151 46.1733 41.7509 46.5433C41.5538 46.6979 41.3469 46.8495 41.1444 47.0042C40.9966 47.1103 40.8564 47.2253 40.7098 47.3314C34.8251 50.9666 30.0659 51.8279 27.5457 51.8279C24.8776 51.8279 17.3244 49.7874 13.5549 47.5432C13.3196 47.3824 13.1006 47.1976 12.8729 47.0276C12.7448 46.9304 12.6189 46.8338 12.4897 46.7367C11.9576 46.324 11.4453 45.8908 10.9493 45.4359C10.8201 45.3175 10.6898 45.2025 10.5639 45.0811C10.0636 44.6051 9.58842 44.1051 9.13297 43.5894ZM26.9982 6.85786C38.1741 6.85786 47.2611 16.0945 47.2611 27.4493C47.2611 31.686 45.9933 35.627 43.8288 38.9003L43.7128 39.0645C43.622 39.2017 43.5169 39.325 43.4238 39.4584C43.0351 40.0036 42.6246 40.5283 42.1921 41.0251C42.0772 41.1623 41.9567 41.2921 41.8385 41.4262C41.4093 41.8923 40.9648 42.3379 40.5017 42.7595C40.3977 42.852 40.297 42.951 40.193 43.0433C39.0084 44.075 37.7274 44.9698 36.3556 45.693C36.3086 45.7201 36.2604 45.7407 36.2133 45.765C35.5892 46.0909 34.9521 46.3781 34.3017 46.6352C34.1595 46.6933 34.0149 46.7413 33.8693 46.7963C33.3033 47.0085 32.7263 47.1872 32.1406 47.3446C31.9578 47.3926 31.7793 47.4439 31.5943 47.4885C31.0206 47.6226 30.437 47.7247 29.8546 47.8142C29.6663 47.8415 29.4857 47.8796 29.2985 47.9002C28.5354 47.9861 27.7712 48.0411 26.9949 48.0411C26.2264 48.0411 25.4633 47.9897 24.7046 47.9002C24.5469 47.8834 24.3915 47.8489 24.2294 47.8283C23.6164 47.7425 23.0076 47.633 22.4044 47.4891C22.2664 47.458 22.1318 47.4169 21.9971 47.3828C21.3632 47.2151 20.7326 47.0266 20.1151 46.797C20.0308 46.7628 19.9411 46.7318 19.8567 46.701C16.973 45.5835 14.3432 43.8047 12.2018 41.4812C12.1448 41.4191 12.0945 41.3579 12.0364 41.2927C11.5548 40.7613 11.1026 40.1995 10.6778 39.6097C10.5727 39.4624 10.4577 39.3186 10.3537 39.1707L10.172 38.917C7.99986 35.6368 6.73314 31.6956 6.73314 27.4521C6.74411 16.0945 15.8278 6.85786 26.9982 6.85786ZM26.9818 9.23975C36.8987 9.23975 44.9609 17.4107 44.9609 27.4555C44.9609 31.203 43.8354 34.6894 41.914 37.5848L41.8122 37.7303C41.7312 37.8514 41.6393 37.9603 41.5549 38.079C41.2123 38.5611 40.8466 39.0248 40.4623 39.4643C40.3605 39.5858 40.2543 39.7008 40.1492 39.8191C39.7693 40.2315 39.373 40.626 38.9635 40.9984C38.8715 41.0805 38.7817 41.1685 38.6887 41.2502C37.6377 42.1626 36.5024 42.9541 35.2838 43.5937C35.2422 43.6177 35.1995 43.6358 35.159 43.6574C34.605 43.9458 34.039 44.1998 33.4631 44.4274C33.3362 44.4787 33.2081 44.5211 33.0789 44.5697C32.5763 44.7576 32.065 44.9157 31.545 45.0546C31.383 45.0971 31.2243 45.1423 31.0589 45.1822C30.5509 45.3003 30.0342 45.391 29.5152 45.4704C29.3488 45.4944 29.189 45.5279 29.0226 45.5464C28.346 45.6223 27.6672 45.6709 26.9785 45.6709C26.2964 45.6709 25.6198 45.6256 24.9476 45.5464C24.8064 45.5313 24.6684 45.5011 24.525 45.4824C23.9809 45.4068 23.4423 45.3099 22.9069 45.1829C22.7843 45.1552 22.665 45.1189 22.5445 45.0884C21.9828 44.9403 21.4234 44.7736 20.8749 44.57C20.8004 44.5399 20.7195 44.5125 20.645 44.4855C18.0864 43.4969 15.7533 41.923 13.8527 39.868C13.8024 39.813 13.7575 39.7589 13.706 39.7014C13.279 39.2312 12.8773 38.7343 12.5017 38.2124C12.4087 38.0821 12.3069 37.9547 12.2138 37.8241L12.0517 37.5993C10.1249 34.6983 9.00159 31.2113 9.00159 27.4576C9.0104 17.4107 17.0704 9.23975 26.9818 9.23975Z" transform="translate(142.0017 65.00004)" id="Combined-shape-1872" fill="#8BC34A" fill-rule="evenodd" stroke="none" />
    <path d="M58.3018 32.779L61.8928 23.7124C62.1698 23.0122 61.9125 22.2127 61.2796 21.8111L53.0871 16.6033L50.7059 7.14057C50.522 6.41 49.8476 5.91706 49.102 5.96529L39.4369 6.60616L31.9933 0.361732C31.4185 -0.120715 30.5842 -0.12044 30.0106 0.361732L22.5658 6.60644L12.9018 5.96564C12.1552 5.91672 11.4808 6.41027 11.2979 7.14057L8.91564 16.6033L0.723062 21.8111C0.0913758 22.2127 -0.165892 23.0125 0.109988 23.7124L3.7021 32.779L0.109988 41.8463C-0.165892 42.5462 0.0913758 43.3457 0.723062 43.7473L8.91564 48.9551L11.2979 58.4178C11.4808 59.1481 12.1585 59.6432 12.9018 59.5928L22.5658 58.9516L30.0106 65.1967C30.2974 65.4374 30.6488 65.558 31.0014 65.558C31.3539 65.558 31.7054 65.4374 31.9933 65.1967L39.4369 58.9516L49.102 59.5928C49.8454 59.6423 50.522 59.1478 50.7059 58.4178L53.0871 48.9551L61.2796 43.7473C61.9125 43.3457 62.1698 42.5462 61.8928 41.8463L58.3018 32.779ZM50.234 47.5818C50.3326 47.1938 50.5735 46.8577 50.9095 46.6442L58.5338 41.7971L55.1925 33.3581C55.0447 32.9863 55.0447 32.5718 55.1925 32.1997L58.5338 23.7607L50.9095 18.9138C50.5735 18.7005 50.3315 18.3647 50.233 17.9763L48.0181 9.16917L39.0231 9.7654C38.6257 9.79307 38.2348 9.66335 37.9294 9.40749L31.0014 3.59542L24.0734 9.40749C23.7679 9.66335 23.377 9.79307 22.9785 9.7654L13.9857 9.16917L11.7676 17.9763C11.6713 18.3647 11.4293 18.7005 11.0932 18.9138L3.4678 23.7607L6.81136 32.1997C6.95696 32.5715 6.95696 32.9863 6.81136 33.3581L3.4678 41.7971L11.0932 46.644C11.4293 46.8577 11.6713 47.1934 11.7676 47.5815L13.9857 56.3886L22.9796 55.7924C23.0136 55.7899 23.0475 55.7893 23.0815 55.7893C23.4428 55.7893 23.7931 55.9163 24.0734 56.1506L31.0014 61.9624L37.9305 56.1506C38.2348 55.8945 38.6257 55.7659 39.0231 55.7927L48.0181 56.3889L50.234 47.5818ZM16.7074 17.3776C16.8366 17.4108 16.9669 17.4271 17.095 17.4271C17.7858 17.4271 18.4154 16.9578 18.5949 16.2518L18.7219 15.7469L25.0434 16.166C25.4386 16.1916 25.8306 16.0636 26.136 15.8078L31.0014 11.7264L35.8667 15.8075C36.1722 16.0633 36.562 16.1912 36.9605 16.1657L44.5629 15.6621C45.4179 15.6055 46.065 14.8613 46.0092 14.0003C45.9522 13.1393 45.2165 12.4862 44.3603 12.5437L37.3754 13.0062L31.9933 8.49207C31.4185 8.0099 30.5854 8.01018 30.0106 8.49207L24.6295 13.0062L17.6424 12.5437C16.9001 12.4948 16.2246 12.9862 16.0396 13.7146L15.5918 15.476C15.3794 16.3121 15.8798 17.1632 16.7074 17.3776ZM15.9356 22.0405C15.8075 22.0405 15.6772 22.0242 15.5491 21.991C14.7192 21.777 14.22 20.9255 14.4324 20.0895L14.5769 19.5203C14.7893 18.6841 15.6334 18.1795 16.4633 18.3945C17.2921 18.6088 17.7924 19.46 17.58 20.296L17.4355 20.8652C17.2559 21.5713 16.6253 22.0405 15.9356 22.0405ZM19.901 40.8257C21.0922 40.8257 22.0885 40.7012 22.8877 40.4518C23.688 40.2027 24.3777 39.774 24.9602 39.1658C25.5415 38.5579 25.9641 37.7224 26.2247 36.6594C26.4864 35.597 26.6166 34.2664 26.6166 32.669C26.6166 31.3206 26.5269 30.1773 26.344 29.2385C26.1634 28.3009 25.9116 27.5386 25.593 26.9525C25.2722 26.3661 24.8288 25.9073 24.2617 25.5777C23.6946 25.2484 23.0913 25.0245 22.452 24.9077C21.8114 24.7899 21.0199 24.7314 20.074 24.7314C19.0416 24.7314 18.1471 24.8412 17.3917 25.0614C16.6352 25.2813 15.9367 25.67 15.2984 26.2265C14.6579 26.7837 14.174 27.6007 13.8467 28.6779C13.5204 29.7554 13.3562 31.0927 13.3562 32.6905C13.3562 34.2883 13.4832 35.6182 13.7383 36.6813C13.9923 37.7437 14.4028 38.5795 14.97 39.1877C15.5371 39.7965 16.2093 40.2209 16.9877 40.4632C17.7661 40.7052 18.7361 40.8257 19.901 40.8257ZM37.2211 27.6558L32.2046 27.6558C31.7393 27.6558 31.5061 27.9341 31.5061 28.4916L31.5061 31.7234L36.3277 31.7234C36.7339 31.7234 36.9375 31.9214 36.9375 32.3172L36.9375 33.8559C36.9375 34.208 36.7339 34.3839 36.3277 34.3839L31.5061 34.3839L31.5061 39.9026C31.5061 40.3426 31.3036 40.5619 30.8963 40.5619L29.0646 40.5619C28.6858 40.5619 28.4975 40.342 28.4975 39.9026L28.4975 27.4362C28.4975 25.824 29.2672 25.0177 30.8087 25.0177L37.2211 25.0177C37.6283 25.0177 37.833 25.2155 37.833 25.6109L37.833 27.1502C37.833 27.4873 37.6283 27.6558 37.2211 27.6558ZM48.0356 25.0177L41.6233 25.0177C40.0829 25.0177 39.311 25.824 39.311 27.4362L39.311 39.9026C39.311 40.3426 39.5016 40.5619 39.8782 40.5619L41.7109 40.5619C42.1182 40.5619 42.3207 40.3426 42.3207 39.9026L42.3207 34.3839L47.1412 34.3839C47.5485 34.3839 47.7521 34.208 47.7521 33.8559L47.7521 32.3172C47.7521 31.9214 47.5485 31.7234 47.1412 31.7234L42.3207 31.7234L42.3207 28.4916C42.3207 27.9341 42.5539 27.6555 43.0192 27.6555L48.0356 27.6555C48.4429 27.6555 48.6466 27.4873 48.6466 27.1502L48.6466 25.6106C48.6466 25.2152 48.4429 25.0177 48.0356 25.0177ZM16.8903 29.2941C16.598 30.1075 16.4534 31.2397 16.4534 32.6905C16.4534 33.8636 16.5257 34.8236 16.6713 35.5715C16.8169 36.3187 17.0468 36.8903 17.3578 37.2864C17.6709 37.6816 18.0278 37.9497 18.4274 38.0887C18.8281 38.228 19.3328 38.2975 19.9437 38.2975C20.5536 38.2975 21.055 38.232 21.448 38.0997C21.841 37.9678 22.2001 37.7114 22.5275 37.3303C22.856 36.9488 23.0946 36.3811 23.2468 35.6265C23.4001 34.8713 23.4767 33.9005 23.4767 32.7132C23.4767 31.1736 23.3574 30.0125 23.1165 29.2284C22.8768 28.4433 22.5209 27.9196 22.0479 27.6558C21.575 27.3919 20.8886 27.26 19.9864 27.26C19.173 27.26 18.5248 27.3959 18.0453 27.6672C17.5658 27.9381 17.1804 28.4802 16.8903 29.2941ZM46.4547 43.5674C45.626 43.3521 44.7808 43.8562 44.5673 44.6922L44.4228 45.2611C44.2103 46.0972 44.7096 46.9487 45.5384 47.1633C45.6687 47.1971 45.7978 47.2128 45.9259 47.2128C46.6157 47.2128 47.2452 46.7442 47.4259 46.0388L47.5704 45.4696C47.7828 44.6338 47.2846 43.7821 46.4547 43.5674ZM43.409 49.3056C43.6213 48.4698 44.4655 47.9656 45.2943 48.1799C46.1241 48.3939 46.6234 49.2454 46.412 50.0812L45.9632 51.8431C45.7782 52.5716 45.1037 53.0636 44.3592 53.0144L37.3754 52.551L31.9933 57.0648C31.7054 57.3056 31.3539 57.4265 31.0014 57.4265C30.6488 57.4265 30.2974 57.3059 30.0106 57.0648L24.6295 52.551L17.6424 53.0144C16.7918 53.0716 16.0506 52.4191 15.9947 51.5578C15.9378 50.6968 16.5837 49.9527 17.4399 49.8961L25.0434 49.3918C25.4386 49.3656 25.8306 49.4939 26.136 49.7497L31.0014 53.8308L35.8667 49.7497C36.1722 49.4939 36.562 49.3656 36.9605 49.3918L43.2798 49.8109L43.409 49.3056Z" transform="translate(0.9984481 41.99703)" id="Combined-shape-1860" fill="#E0E0E0" fill-rule="evenodd" stroke="none" />
    <path d="M102 50.9999C102 54.8842 98.4012 57.2067 95.2262 59.2559C94.1346 59.9601 92.141 61.2467 91.6812 61.9216C91.7161 62.7713 92.8898 65.0683 93.4646 66.1943C95.1517 69.4954 97.0633 73.2373 95.1703 76.5088C93.2566 79.8154 89.0251 80.0263 85.2907 80.2123C83.9572 80.2791 81.5179 80.4003 80.7767 80.7773C80.4002 81.5187 80.2775 83.958 80.2118 85.2919C80.0257 89.0254 79.8144 93.2569 76.5092 95.1701C75.6135 95.6879 74.5954 95.9509 73.4819 95.9509C71.0602 95.9509 68.586 94.687 66.1938 93.465C64.7606 92.7328 62.8108 91.7365 61.9163 91.6846C61.2419 92.1505 59.9588 94.1372 59.2559 95.2264C57.2064 98.4013 54.8843 102 50.9999 102C47.1155 102 44.7923 98.4013 42.7428 95.2264C42.041 94.1385 40.7601 92.1542 40.0834 91.6859C39.1682 91.7473 37.2304 92.7369 35.806 93.465C33.4138 94.6874 30.9395 95.9509 28.5167 95.9512C27.4044 95.9512 26.3862 95.6885 25.4906 95.1704C22.1843 93.2571 21.9729 89.0254 21.7869 85.2919C21.7211 83.958 21.5985 81.5187 21.222 80.7773C20.4808 80.4003 18.0415 80.2788 16.7069 80.2123C12.9736 80.0263 8.74209 79.8154 6.82836 76.5088C4.93632 73.2389 6.84628 69.4993 8.53168 66.1994L8.53409 66.1947C9.10991 65.0686 10.2825 62.7718 10.3175 61.9216C9.85771 61.2467 7.86513 59.9604 6.77365 59.2562C3.59866 57.2067 0 54.8845 0 51.0001C0 47.1155 3.59866 44.7929 6.77365 42.7438C7.86513 42.0396 9.85771 40.7533 10.3175 40.0784C10.2825 39.2284 9.10991 36.9314 8.53514 35.806L8.53364 35.803C6.84697 32.5017 4.93598 28.7614 6.82836 25.4909C8.74209 22.1846 12.9736 21.9737 16.708 21.7876C18.0415 21.7212 20.4808 21.5994 21.223 21.223C21.5997 20.4813 21.7211 18.0419 21.7869 16.7077C21.9741 12.9741 22.1853 8.74256 25.4906 6.82958C26.3862 6.31177 27.4033 6.04878 28.5167 6.04878C30.9395 6.04878 33.4138 7.31262 35.806 8.53491C37.238 9.26716 39.1879 10.2635 40.0824 10.3154C40.7579 9.84952 42.041 7.86276 42.7428 6.77361C44.7923 3.5987 47.1155 0 50.9999 0C54.8843 0 57.2064 3.5987 59.2559 6.77361C59.9577 7.86149 61.2386 9.84549 61.9152 10.3138C62.8316 10.2526 64.7673 9.26313 66.1938 8.53491C68.586 7.31262 71.0592 6.04878 73.4819 6.04878C74.5943 6.04878 75.6135 6.31177 76.508 6.82958C79.8144 8.74256 80.0257 12.9741 80.2118 16.7077C80.2775 18.0416 80.4002 20.481 80.7767 21.2227C81.5179 21.5994 83.9572 21.7212 85.2907 21.7876C89.0251 21.9737 93.2566 22.1843 95.1703 25.4909C97.0633 28.7624 95.1517 32.5039 93.4646 35.8056C92.8898 36.9314 91.7161 39.2284 91.6812 40.0784C92.141 40.753 94.1346 42.0393 95.2262 42.7438C98.4012 44.7929 102 47.1155 102 50.9999ZM61.0799 58.3054C61.0799 59.3488 60.2336 60.1944 59.1913 60.1944L58.5575 60.1944C57.5141 60.1944 56.6688 59.3488 56.6688 58.3054L56.6688 32.9902C56.6688 31.9468 57.5151 31.1011 58.5575 31.1011L59.1913 31.1011C60.2347 31.1011 61.0799 31.9471 61.0799 32.9902L61.0799 58.3054ZM52.6563 60.1944C53.6986 60.1944 54.5449 59.3488 54.5449 58.3054L54.5449 50.5279C54.5449 47.7966 53.564 45.4306 51.6283 43.495C49.6927 41.5595 47.3268 40.5784 44.5952 40.5784C41.8648 40.5784 39.4977 41.5598 37.5632 43.495C35.6265 45.4304 34.6455 47.7966 34.6455 50.5279C34.6455 53.2717 35.6265 55.6412 37.5643 57.5705C39.4988 59.4989 41.8648 60.477 44.5952 60.477C45.6396 60.477 46.6469 60.33 47.5928 60.0413C48.1271 59.8774 48.5606 59.4856 48.7785 58.9709C48.9964 58.4561 48.9745 57.8712 48.7205 57.3737L48.4139 56.7769C48.0012 55.9705 47.0739 55.5711 46.2057 55.8242C45.6977 55.9718 45.1568 56.0465 44.5952 56.0465C43.0548 56.0465 41.7772 55.5182 40.6911 54.4322C39.6039 53.3458 39.0751 52.0684 39.0751 50.5279C39.0751 48.9989 39.6039 47.7247 40.6922 46.6315C41.7782 45.5393 43.0548 45.0084 44.5952 45.0084C46.1356 45.0084 47.4121 45.5393 48.4982 46.6318C49.5854 47.7244 50.1152 48.9986 50.1152 50.5279L50.1152 58.3054C50.1152 59.3488 50.9605 60.1944 52.0027 60.1944L52.6563 60.1944ZM80.3903 57.5665C81.414 56.5524 82.1475 55.4629 82.6303 54.236C82.8427 53.6988 82.7967 53.0936 82.5066 52.5939C82.2153 52.0942 81.7128 51.755 81.1414 51.673L80.4614 51.5751C79.613 51.4531 78.7875 51.9192 78.4524 52.7086C78.1908 53.328 77.7955 53.9045 77.2766 54.422C76.184 55.5152 74.9052 56.0465 73.3637 56.0465C71.8222 56.0465 70.5457 55.5182 69.4585 54.4318C69.302 54.2751 69.1564 54.1138 69.0216 53.9488L80.9957 47.5405C81.4775 47.2825 81.8256 46.8305 81.9471 46.2978C82.0686 45.7659 81.9548 45.2077 81.634 44.7665C81.6165 44.741 81.5946 44.7087 81.5694 44.6708C79.7619 41.955 77.0007 40.5784 73.3637 40.5784C70.6321 40.5784 68.2663 41.5598 66.3306 43.495C64.395 45.4301 63.414 47.7962 63.414 50.5279C63.414 53.2723 64.3961 55.6418 66.3318 57.5705C68.2673 59.4989 70.6321 60.477 73.3637 60.477C76.0942 60.477 78.4613 59.4958 80.3903 57.5665ZM32.527 58.6129C31.3271 59.6621 29.8414 60.1944 28.1117 60.1944L21.1256 60.1944C20.0811 60.1944 19.237 59.3488 19.237 58.3054L19.237 57.747C19.237 56.7036 20.0822 55.8581 21.1256 55.8581L28.1117 55.8581C29.5688 55.8581 29.7681 55.3063 29.7681 54.7104C29.7681 54.3722 29.4035 53.4762 26.026 52.4543C23.1247 51.5782 21.3117 50.6545 20.483 49.6314C19.6553 48.6087 19.2359 47.395 19.2359 46.0241C19.2359 44.5796 19.8074 43.3397 20.934 42.341C22.0419 41.3591 23.4105 40.861 25.0034 40.861L31.6129 40.861C32.6551 40.861 33.5025 41.7066 33.5025 42.7499L33.5025 43.308C33.5025 44.3517 32.6551 45.197 31.6129 45.197L25.0034 45.197C23.648 45.197 23.648 45.8704 23.648 46.194C23.648 46.4845 24.0071 47.561 28.6306 49.2022C32.4372 50.5543 34.3685 52.3756 34.3685 54.6158C34.3685 56.1997 33.7477 57.5446 32.527 58.6129ZM73.3637 45.0082C71.8222 45.0082 70.5468 45.5393 69.4596 46.6315C68.4688 47.6281 67.9411 48.776 67.8568 50.1303L76.1118 45.7189C75.2961 45.2419 74.3907 45.0082 73.3637 45.0082Z" transform="translate(277.0004 8E-06)" id="Combined-shape-1861" fill="#E0E0E0" fill-rule="evenodd" stroke="none" />
    <path d="M51.1484 31.773L30.5034 11.5589C28.7747 9.86369 25.9764 8.90364 23.547 9.1678L15.8066 10.0103L16.9485 2.33669C17.1139 1.22168 16.3255 0.183567 15.1847 0.0215216C14.0462 -0.140263 12.9875 0.627256 12.8199 1.7463L11.5204 10.4759L7.77942 10.8827C4.88906 11.1985 2.12029 13.907 1.79516 16.7477L0.044518 32.1799C-0.22589 34.5609 0.75394 37.2992 2.48378 38.9944L23.1288 59.2113C25.5691 61.5963 29.5367 61.5963 31.976 59.2113L51.1463 40.44C53.5866 38.0489 53.5866 34.1602 51.1484 31.773ZM30.5034 57.7636L49.6737 38.9923C51.2995 37.4009 51.2995 34.8102 49.6781 33.2168L29.032 13.0026C27.7653 11.7631 25.5582 11.0054 23.7813 11.1985L15.4979 12.1001L15.1891 14.1871L24.0079 13.2289C25.1487 13.1026 26.745 13.6518 27.5573 14.4466L48.2001 34.6608C49.0113 35.4544 49.0113 36.7528 48.2001 37.5482L29.0298 56.3196C28.2186 57.1136 26.8927 57.1136 26.0815 56.3196L5.43757 36.1045C4.62635 35.3127 4.06581 33.7472 4.19497 32.6304L5.94447 17.1963C6.0693 16.0798 7.10608 15.0647 8.24687 14.9402L10.9007 14.6527L11.2106 12.5648L8.01369 12.9128C7.03933 13.0186 6.06167 13.5048 5.27011 14.2806C4.47524 15.0564 3.98037 16.0128 3.86654 16.974L2.12029 32.4053C1.91885 34.1461 2.69724 36.3099 3.9607 37.5482L24.6056 57.7636C26.2315 59.3552 28.8765 59.3552 30.5034 57.7636ZM13.5469 22.3854C13.0959 22.827 12.4456 23.0591 11.7689 22.9638C10.6314 22.8002 9.84202 21.7649 10.0074 20.6474L10.5296 17.1496C10.0183 17.3479 9.53547 17.648 9.12057 18.0549C7.49476 19.6514 7.49476 22.2369 9.12057 23.831C10.7519 25.4284 13.3915 25.4266 15.0205 23.831C16.6463 22.2348 16.6496 19.6514 15.0205 18.0549C14.9056 17.9423 14.7764 17.8565 14.6516 17.7609L14.1337 21.2378C14.0681 21.6914 13.8524 22.0853 13.5469 22.3854ZM29.3659 43.7164L27.2551 45.7782L22.9207 25.7615L25.0447 23.6787L29.3659 43.7164ZM30.0392 30.754C29.0824 31.6891 28.6204 32.7362 28.6532 33.889C28.6839 35.0415 29.2148 36.1223 30.2451 37.1316C31.1899 38.0569 32.2146 38.5273 33.3073 38.5473C34.4076 38.5691 35.3984 38.1466 36.2775 37.285C37.2268 36.3539 37.6866 35.3127 37.6504 34.1621C37.6154 33.0117 37.0899 31.9385 36.0706 30.9394C35.0776 29.9705 34.0561 29.4717 33.0029 29.4429C31.9475 29.4139 30.9589 29.8515 30.0392 30.754ZM23.662 35.5759C23.6937 36.7229 23.2306 37.7616 22.2803 38.6888C21.3989 39.5525 20.4103 39.975 19.3122 39.9554C18.2152 39.9354 17.1927 39.4646 16.2479 38.5393C15.2187 37.5304 14.6866 36.4474 14.6538 35.2931C14.622 34.1402 15.0851 33.095 16.0387 32.1578C16.9562 31.2623 17.947 30.8296 19.0089 30.8598C20.0731 30.8905 21.099 31.3912 22.0898 32.3613C23.1091 33.3585 23.6335 34.4314 23.662 35.5759ZM34.8597 35.6937C35.6798 34.8939 35.5144 33.9286 34.3594 32.8004C33.8251 32.2755 33.2996 31.9785 32.7873 31.9029C32.2727 31.8309 31.838 31.9705 31.4844 32.3174C30.648 33.135 30.8155 34.1162 31.9825 35.2629C33.0883 36.3477 34.0485 36.4892 34.8597 35.6937ZM18.0028 36.6531C16.8324 35.5061 16.6704 34.5231 17.509 33.6974C18.2875 32.9357 19.2367 33.1073 20.3622 34.2079C21.5117 35.3349 21.6792 36.2998 20.8614 37.0996C20.06 37.8853 19.1075 37.7337 18.0028 36.6531Z" transform="translate(261.9865 179.0043)" id="Combined-shape-1862" fill="#E0E0E0" fill-rule="evenodd" stroke="none" />
  </g>
</svg>