<?xml version="1.0" encoding="utf-8"?>
<svg width="32px" height="28px" viewBox="0 0 32 28" version="1.1"
    xmlns:xlink="http://www.w3.org/1999/xlink"
    xmlns="http://www.w3.org/2000/svg">
    <desc>Created with Lunacy</desc>
    <path d="M20.033 2.29963C20.414 1.56625 20.1873 0.628992 19.5283 0.205572C18.8692 -0.217548 18.0273 0.0333717 17.6463 0.766752L13.9699 7.84696C13.59 8.58004 13.8155 9.5179 14.4757 9.94102C15.1348 10.3644 15.9778 10.1129 16.3577 9.37984L20.033 2.29963ZM1.60828 9.02068L11.6555 9.02068C11.6554 9.0302 11.6554 9.03973 11.6554 9.04927C11.6554 10.913 13.0831 12.4241 14.8435 12.4241C16.604 12.4241 18.0317 10.913 18.0317 9.04927C18.0317 9.03973 18.0316 9.0302 18.0315 9.02068L30.3922 9.02068C31.2801 9.02068 32.0005 9.7759 32.0005 10.7079C32.0005 11.6394 31.2801 12.3949 30.3922 12.3949L29.3963 12.3949L23.4236 27.0177L8.41696 27.0177L2.44434 12.3949L1.60828 12.3949C0.719296 12.3949 -2.00272e-05 11.6394 -2.00272e-05 10.7079C-2.00272e-05 9.7759 0.719296 9.02068 1.60828 9.02068ZM10.9701 14.6117L10.5299 14.6117C9.97817 14.6117 9.53148 15.0585 9.53148 15.6098L9.53148 22.6445C9.53148 23.1958 9.97817 23.6429 10.5299 23.6429L10.9701 23.6429C11.5219 23.6429 11.9685 23.1958 11.9685 22.6445L11.9685 15.6098C11.9685 15.0585 11.5219 14.6117 10.9701 14.6117ZM15.7172 14.6117L16.1891 14.6117C16.7408 14.6117 17.1886 15.0585 17.1886 15.6098L17.1886 22.6445C17.1886 23.1958 16.7408 23.6429 16.1891 23.6429L15.7172 23.6429C15.1654 23.6429 14.7187 23.1958 14.7187 22.6445L14.7187 15.6098C14.7187 15.0585 15.1654 14.6117 15.7172 14.6117ZM21.3446 14.6117L20.8727 14.6117C20.322 14.6117 19.8742 15.0585 19.8742 15.6098L19.8742 22.6445C19.8742 23.1958 20.322 23.6429 20.8727 23.6429L21.3446 23.6429C21.8964 23.6429 22.3441 23.1958 22.3441 22.6445L22.3441 15.6098C22.3441 15.0585 21.8964 14.6117 21.3446 14.6117Z" id="Cart-icon" fill="#C8C8C8" fill-rule="evenodd" stroke="none" />
</svg>