<?xml version="1.0" encoding="utf-8"?>
<svg width="12px" height="18px" viewBox="0 0 12 18" version="1.1" xmlns:xlink="http://www.w3.org/1999/xlink" xmlns="http://www.w3.org/2000/svg">
  <desc>Created with Lunacy</desc>
  <path d="M10.5891 0.003696C10.5891 0.003696 7.95056 0 7.95056 0C4.9847 0 3.06768 1.73615 3.06768 4.42369C3.06768 4.42369 3.06768 6.46304 3.06768 6.46304C3.06768 6.46304 0.41384 6.46304 0.41384 6.46304C0.185024 6.46304 0 6.62724 0 6.8305C0 6.8305 0 9.78526 0 9.78526C0 9.9876 0.185024 10.1518 0.41384 10.1518C0.41384 10.1518 3.06768 10.1518 3.06768 10.1518C3.06768 10.1518 3.06768 17.6093 3.06768 17.6093C3.06768 17.8117 3.2527 17.9759 3.4837 17.9759C3.4837 17.9759 6.94553 17.9759 6.94553 17.9759C7.17434 17.9759 7.36155 17.8113 7.36155 17.6093C7.36155 17.6093 7.36155 10.1518 7.36155 10.1518C7.36155 10.1518 10.4643 10.1518 10.4643 10.1518C10.6931 10.1518 10.8792 9.9876 10.8792 9.78526C10.8792 9.78526 10.8803 6.8305 10.8803 6.8305C10.8803 6.73334 10.8365 6.63955 10.7588 6.57096C10.681 6.50179 10.5748 6.46304 10.4654 6.46304C10.4654 6.46304 7.36155 6.46304 7.36155 6.46304C7.36155 6.46304 7.36155 4.73397 7.36155 4.73397C7.36155 3.9034 7.58598 3.48121 8.8111 3.48121C8.8111 3.48121 10.5891 3.4806 10.5891 3.4806C10.819 3.4806 11.004 3.31638 11.004 3.11405C11.004 3.11405 11.004 0.37023 11.004 0.37023C11.004 0.167895 10.819 0.003696 10.5891 0.003696Z" id="Forma-1-copy-4" fill="#8BC34A" fill-rule="evenodd" stroke="none" />
</svg>