<?xml version="1.0" encoding="utf-8"?>
<svg width="42px" height="42px" viewBox="0 0 42 42" version="1.1"
    xmlns:xlink="http://www.w3.org/1999/xlink"
    xmlns="http://www.w3.org/2000/svg">
    <desc>Created with Lunacy</desc>
    <g id="fb">
        <path d="M20.9995 0.999978C32.0462 0.999978 40.9996 9.95442 40.9996 21.0001C40.9996 32.0455 32.0462 40.9999 20.9995 40.9999C9.95392 40.9999 1.00048 32.0455 1.00048 21.0001C1.00048 9.95442 9.95392 0.999978 20.9995 0.999978Z" id="Rectangle-2-copy-5" fill="#3B5998" stroke="none" />
        <path d="M13.5546 1.9956C13.5546 1.9956 10.6709 1.99162 10.6709 1.99162C7.43021 1.99162 5.33582 3.92671 5.33582 6.92268C5.33582 6.92268 5.33582 9.19603 5.33582 9.19603C5.33582 9.19603 2.43565 9.19603 2.43565 9.19603C2.18494 9.19603 1.9824 9.3787 1.9824 9.60562C1.9824 9.60562 1.9824 12.8989 1.9824 12.8989C1.9824 13.1247 2.18494 13.3076 2.43565 13.3076C2.43565 13.3076 5.33582 13.3076 5.33582 13.3076C5.33582 13.3076 5.33582 21.6203 5.33582 21.6203C5.33582 21.846 5.53837 22.0292 5.78907 22.0292C5.78907 22.0292 9.57277 22.0292 9.57277 22.0292C9.82349 22.0292 10.0271 21.8454 10.0271 21.6203C10.0271 21.6203 10.0271 13.3076 10.0271 13.3076C10.0271 13.3076 13.4178 13.3076 13.4178 13.3076C13.6685 13.3076 13.871 13.1247 13.871 12.8989C13.871 12.8989 13.8721 9.60562 13.8721 9.60562C13.8721 9.49706 13.825 9.39283 13.7396 9.31627C13.6543 9.23909 13.5393 9.19603 13.4189 9.19603C13.4189 9.19603 10.0271 9.19603 10.0271 9.19603C10.0271 9.19603 10.0271 7.26862 10.0271 7.26862C10.0271 6.34274 10.2724 5.87196 11.6113 5.87196C11.6113 5.87196 13.5546 5.87165 13.5546 5.87165C13.8053 5.87165 14.0079 5.68838 14.0079 5.46298C14.0079 5.46298 14.0079 2.40427 14.0079 2.40427C14.0079 2.17886 13.8053 1.9956 13.5546 1.9956Z" transform="translate(13 8)" id="Forma-1-copy" fill="#FFFFFF" stroke="none" />
    </g>
</svg>