<?xml version="1.0" encoding="utf-8"?>
<svg width="19px" height="18px" viewBox="0 0 19 18" version="1.1"
  xmlns:xlink="http://www.w3.org/1999/xlink"
  xmlns="http://www.w3.org/2000/svg">
  <desc>Created with Lunacy</desc>
  <g id="fb-icon">
    <path d="M9.00051 -1.19209e-07C13.971 -1.19209e-07 18.001 3.91049 18.001 8.73455C18.001 13.5583 13.971 17.4688 9.00051 17.4688C4.02893 17.4688 1.19209e-07 13.5583 1.19209e-07 8.73455C1.19209e-07 3.91049 4.02893 -1.19209e-07 9.00051 -1.19209e-07Z" transform="translate(-9E-05 -6.5E-05)" id="Ellipse-5" fill="#8BC34A" stroke="none" />
    <path d="M6.9313 0.00214493C6.9313 0.00214493 5.20367 0 5.20367 0C3.26366 0 2.009 1.12452 2.009 2.8656C2.009 2.8656 2.009 4.18662 2.009 4.18662C2.009 4.18662 0.271513 4.18662 0.271513 4.18662C0.122617 4.18662 1.19209e-07 4.29301 1.19209e-07 4.42492C1.19209e-07 4.42492 1.19209e-07 6.33912 1.19209e-07 6.33912C1.19209e-07 6.47011 0.122617 6.57651 0.271513 6.57651C0.271513 6.57651 2.0079 6.57651 2.0079 6.57651C2.0079 6.57651 2.0079 11.4073 2.0079 11.4073C2.0079 11.5383 2.13052 11.6453 2.27941 11.6453C2.27941 11.6453 4.54568 11.6453 4.54568 11.6453C4.69677 11.6453 4.8183 11.5383 4.8183 11.4073C4.8183 11.4073 4.8183 6.57651 4.8183 6.57651C4.8183 6.57651 6.84918 6.57651 6.84918 6.57651C6.99918 6.57651 7.1207 6.47011 7.1207 6.33912C7.1207 6.33912 7.1218 4.42492 7.1218 4.42492C7.1218 4.36158 7.09333 4.30131 7.04297 4.25703C6.99151 4.21152 6.92254 4.18662 6.85028 4.18662C6.85028 4.18662 4.8183 4.18662 4.8183 4.18662C4.8183 4.18662 4.8183 3.0667 4.8183 3.0667C4.8183 2.52858 4.965 2.2549 5.76751 2.2549C5.76751 2.2549 6.9302 2.2549 6.9302 2.2549C7.08238 2.2549 7.20281 2.14851 7.20281 2.0172C7.20281 2.0172 7.20281 0.23985 7.20281 0.23985C7.20281 0.10854 7.08238 0.00214493 6.9313 0.00214493Z" transform="translate(4.801778 3.494375)" id="Forma-1-copy" fill="#FFFFFF" stroke="none" />
  </g>
</svg>