<?xml version="1.0" encoding="utf-8"?>
<svg width="42px" height="43px" viewBox="0 0 42 43" version="1.1"
    xmlns:xlink="http://www.w3.org/1999/xlink"
    xmlns="http://www.w3.org/2000/svg">
    <desc>Created with Lunacy</desc>
    <g id="g+">
        <path d="M21 1.99017C32.0456 1.99017 41.0001 10.9442 41.0001 21.99C41.0001 33.0357 32.0456 41.9901 21 41.9901C9.95438 41.9901 0.999852 33.0357 0.999852 21.99C0.999852 10.9442 9.95438 1.99017 21 1.99017Z" id="Rectangle-2-copy-6" fill="#DC4E41" stroke="none" />
        <path d="M12.6418 9.89927L21.9532 9.89927L21.9532 13.0109C21.0291 17.5757 16.8032 21.0117 11.9772 21.0117C6.46697 21.0117 2.00013 16.5339 2.00013 11.0106C2.00013 5.48725 6.46697 1.00942 11.9772 1.00942C14.6945 1.00942 17.159 2.09983 18.9578 3.86734L16.7057 6.32212C15.4992 5.10041 13.8264 4.34304 11.9772 4.34304C8.30299 4.34304 5.3251 7.32826 5.3251 11.0106C5.3251 14.6929 8.30299 17.6778 11.9772 17.6778C14.9551 17.6778 17.4754 15.7156 18.3228 13.0109L12.6418 13.0109L12.6418 9.89927ZM26.0949 9.89405L27.9999 9.89405L27.9999 11.5306L26.0949 11.5306L26.0949 13.4398L24.4625 13.4398L24.4625 11.5306L22.5575 11.5306L22.5575 9.89405L24.4625 9.89405L24.4625 7.98477L26.0949 7.98477L26.0949 9.89405Z" transform="translate(6 10)" id="Combined-shape-8829" fill="#FFFFFF" fill-rule="evenodd" stroke="none" />
    </g>
</svg>