<?xml version="1.0" encoding="utf-8"?>
<svg width="19px" height="18px" viewBox="0 0 19 18" version="1.1"
    xmlns:xlink="http://www.w3.org/1999/xlink"
    xmlns="http://www.w3.org/2000/svg">
    <desc>Created with Lunacy</desc>
    <g id="insta-icon">
        <path d="M9.00051 0C13.971 0 18.001 3.91079 18.001 8.73455C18.001 13.5583 13.971 17.4691 9.00051 17.4691C4.02893 17.4691 1.19209e-07 13.5583 1.19209e-07 8.73455C1.19209e-07 3.91079 4.02893 0 9.00051 0Z" transform="translate(-9E-05 0.531131)" id="Ellipse-5-copy-2" fill="#8BC34A" stroke="none" />
        <path d="M10.3942 0.39637C10.1216 0.132236 9.79643 0 9.41763 0L1.38604 0C1.00614 0 0.679882 0.132236 0.409458 0.39637C0.13685 0.659906 0 0.976625 0 1.34501L0 9.14046C0 9.50884 0.13685 9.82557 0.409458 10.0891C0.679882 10.3532 1.00614 10.4855 1.38604 10.4855L9.41763 10.4855C9.79643 10.4855 10.1216 10.3532 10.3942 10.0891C10.6668 9.82557 10.8015 9.50884 10.8015 9.14046L10.8015 1.34501C10.8015 0.976625 10.6668 0.660205 10.3942 0.39637ZM9.43842 3.0993C9.53259 3.00828 9.57856 2.89666 9.57856 2.76505L9.57856 1.63836C9.57856 1.51107 9.53259 1.40067 9.43842 1.3075C9.34427 1.21402 9.22932 1.16758 9.09356 1.16758L7.86955 1.16758C7.73489 1.16758 7.61884 1.21402 7.52468 1.3075C7.43162 1.40067 7.38455 1.51107 7.38455 1.63836L7.38455 2.76505C7.38455 2.89666 7.43162 3.00828 7.52468 3.0993C7.61884 3.19002 7.73489 3.23583 7.86955 3.23583L9.09356 3.23583C9.22932 3.23583 9.34427 3.19002 9.43842 3.0993ZM5.4084 3.1811C4.81282 3.1811 4.30263 3.38035 3.87894 3.77827C3.45524 4.17647 3.24176 4.65802 3.24176 5.22197C3.24176 5.78624 3.45524 6.26748 3.87894 6.66568C4.30263 7.0639 4.81282 7.26316 5.4084 7.26316C6.00946 7.26316 6.52074 7.0639 6.94553 6.66568C7.36922 6.26748 7.58162 5.78624 7.58162 5.22197C7.58162 4.65802 7.36922 4.17647 6.94553 3.77827C6.52074 3.38035 6.00946 3.1811 5.4084 3.1811ZM9.57856 8.86063C9.57856 8.97902 9.53695 9.07772 9.45157 9.15737C9.36726 9.23732 9.26654 9.27698 9.14939 9.27698L1.63237 9.27698C1.51085 9.27698 1.40794 9.23732 1.32583 9.15737C1.24481 9.07803 1.2032 8.97902 1.2032 8.86063L1.2032 4.43724L2.19512 4.43724C2.10095 4.72382 2.05388 5.0221 2.05388 5.33144C2.05388 6.20506 2.38232 6.95044 3.03922 7.56698C3.69501 8.18383 4.48547 8.49224 5.4084 8.49224C6.01821 8.49224 6.58095 8.3508 7.09661 8.06881C7.61228 7.78653 8.01954 7.40338 8.31953 6.91846C8.6206 6.43383 8.76949 5.90494 8.76949 5.33144C8.76949 5.0221 8.72351 4.72382 8.62936 4.43724L9.57856 4.43724L9.57856 8.86063Z" transform="translate(3.598576 4.020955)" id="Combined-shape-417" fill="#FFFFFF" fill-rule="evenodd" stroke="none" />
    </g>
</svg>