<?xml version="1.0" encoding="utf-8"?>
<svg width="19px" height="18px" viewBox="0 0 19 18" version="1.1"
    xmlns:xlink="http://www.w3.org/1999/xlink"
    xmlns="http://www.w3.org/2000/svg">
    <desc>Created with Lunacy</desc>
    <g id="pntr-icon">
        <path d="M9.00051 0C13.971 0 18.001 3.91018 18.001 8.73454C18.001 13.5583 13.971 17.4685 9.00051 17.4685C4.02893 17.4685 1.19209e-07 13.5583 1.19209e-07 8.73454C1.19209e-07 3.91018 4.02893 0 9.00051 0Z" transform="translate(-9E-05 0.28134)" id="Ellipse-5-copy-3" fill="#8BC34A" stroke="none" />
        <path d="M1.96555 7.41918C2.63996 6.32294 1.74879 6.08247 1.60865 5.2882C1.03825 2.04038 5.68138 -0.177319 8.11297 2.09174C9.7957 3.66307 8.68665 8.49574 5.97479 7.99236C3.37678 7.51327 7.24806 3.66675 5.17337 2.91214C3.48845 2.29806 2.59289 4.78881 3.39211 6.02651C2.92353 8.15534 1.9152 10.1602 2.32356 12.8287C3.6483 11.945 4.09607 10.251 4.46174 8.48466C5.1274 8.85705 5.4843 9.24418 6.33279 9.30446C9.46397 9.5274 11.2135 6.42811 10.7843 3.56774C10.4044 1.03179 7.65752 -0.259415 4.72669 0.0434654C2.41005 0.282393 0.101091 2.00532 0.00474274 4.46963C-0.0532873 5.97361 0.410925 7.10246 1.96555 7.41918Z" transform="translate(3.588359 2.774743)" id="Forma-1-copy-3" fill="#FFFFFF" stroke="none" />
    </g>
</svg>