<?xml version="1.0" encoding="utf-8"?>
<svg width="42px" height="43px" viewBox="0 0 42 43" version="1.1"
    xmlns:xlink="http://www.w3.org/1999/xlink"
    xmlns="http://www.w3.org/2000/svg">
    <desc>Created with Lunacy</desc>
    <g id="pntrs">
        <path d="M21.0005 1.98987C32.0461 1.98987 40.9995 10.9443 40.9995 21.99C40.9995 33.0357 32.0461 41.9901 21.0005 41.9901C9.95375 41.9901 1.00036 33.0357 1.00036 21.99C1.00036 10.9443 9.95375 1.98987 21.0005 1.98987Z" id="Rectangle-2-copy-7" fill="#CB2027" stroke="none" />
        <path d="M10.2214 18.5539C9.54698 21.9961 8.72258 25.2965 6.28006 27.0203C5.52682 21.8174 7.38802 17.91 8.25182 13.7615C6.7782 11.3498 8.42808 6.49528 11.5352 7.69147C15.3583 9.16316 8.22444 16.6591 13.0132 17.5958C18.0132 18.5727 20.055 9.15669 16.9545 6.094C12.4745 1.67246 3.91416 5.99314 4.96738 12.324C5.22355 13.8719 6.86688 14.3412 5.62426 16.4774C2.75693 15.859 1.90078 13.6594 2.01137 10.7265C2.18873 5.9267 6.44537 2.56543 10.7141 2.10079C16.1137 1.51255 21.1805 4.02882 21.8801 8.96944C22.6684 14.5459 19.4442 20.5859 13.6701 20.1511C12.1056 20.033 11.4476 19.279 10.2214 18.5539Z" transform="translate(9 6)" id="Forma-1" fill="#FFFFFF" stroke="none" />
    </g>
</svg>