<?xml version="1.0" encoding="utf-8"?>
<svg width="19px" height="14px" viewBox="0 0 19 14" version="1.1" xmlns:xlink="http://www.w3.org/1999/xlink" xmlns="http://www.w3.org/2000/svg">
  <desc>Created with Lunacy</desc>
  <path d="M17.5324 0.24016C16.8175 0.61624 16.0249 0.8896 15.1818 1.03781C14.5085 0.397904 13.5473 0 12.4831 0C10.4391 0 8.78374 1.47078 8.78374 3.28411C8.78374 3.54118 8.81549 3.79179 8.87898 4.03163C5.80474 3.8948 3.07974 2.58701 1.25468 0.600544C0.936078 1.08456 0.755436 1.64821 0.755436 2.25091C0.755436 3.39082 1.40796 4.39571 2.39985 4.98458C1.79333 4.96645 1.22401 4.81853 0.72479 4.57192C0.72479 4.57192 0.72479 4.61312 0.72479 4.61312C0.72479 6.20413 2.00024 7.53099 3.69063 7.83389C3.38081 7.9083 3.05455 7.9495 2.71735 7.9495C2.47867 7.9495 2.24657 7.92798 2.02105 7.88954C2.49073 9.19395 3.85706 10.1435 5.47521 10.1712C4.20959 11.0516 2.61444 11.5756 0.881342 11.5756C0.58355 11.5756 0.287958 11.5605 0 11.531C1.63676 12.4624 3.58006 13.0067 5.67008 13.0067C12.4733 13.0067 16.1935 8.00208 16.1935 3.66202C16.1935 3.66202 16.1825 3.23645 16.1825 3.23645C16.9062 2.7752 17.5357 2.19648 18.0306 1.53904C17.3671 1.79981 16.6544 1.97661 15.9066 2.05626C16.6708 1.64974 17.2554 1.00522 17.5324 0.24016Z" id="Forma-1-copy-4" fill="#8BC34A" fill-rule="evenodd" stroke="none" />
</svg>