<?xml version="1.0" encoding="utf-8"?>
<svg width="19px" height="18px" viewBox="0 0 19 18" version="1.1"
    xmlns:xlink="http://www.w3.org/1999/xlink"
    xmlns="http://www.w3.org/2000/svg">
    <desc>Created with Lunacy</desc>
    <g id="twt-icon">
        <path d="M9.00049 0C13.971 0 17.9999 3.91048 17.9999 8.73424C17.9999 13.5583 13.971 17.4688 9.00049 17.4688C4.03003 17.4688 1.19209e-07 13.5583 1.19209e-07 8.73424C1.19209e-07 3.91048 4.03003 0 9.00049 0Z" transform="translate(0.999473 0.25002)" id="Ellipse-5-copy" fill="#8BC34A" stroke="none" />
        <path d="M12.8214 0.172198C12.2981 0.442182 11.72 0.638677 11.1025 0.74477C10.6099 0.285363 9.90701 1.19209e-07 9.12859 1.19209e-07C7.63525 1.19209e-07 6.4233 1.05565 6.4233 2.35668C6.4233 2.54088 6.44846 2.72107 6.49336 2.89327C4.2468 2.79487 2.25314 1.85639 0.918544 0.430807C0.685344 0.778284 0.553968 1.18296 0.553968 1.6153C0.553968 2.43325 1.03131 3.15464 1.75608 3.57716C1.31267 3.56424 0.895552 3.45784 0.530976 3.28103C0.530976 3.28103 0.530976 3.31055 0.530976 3.31055C0.530976 4.4526 1.46376 5.40463 2.69981 5.62172C2.47318 5.67554 2.23451 5.70505 1.98709 5.70505C1.81301 5.70505 1.64442 5.68937 1.478 5.6617C1.82286 6.59834 2.82134 7.27945 4.00483 7.29945C3.07862 7.93105 1.91264 8.30743 0.645936 8.30743C0.426976 8.30743 0.211296 8.29637 0 8.27515C1.19662 8.94365 2.6188 9.33417 4.14606 9.33417C9.12202 9.33417 11.8426 5.74257 11.8426 2.6279C11.8426 2.6279 11.8339 2.32255 11.8339 2.32255C12.3638 1.99168 12.8236 1.57625 13.1849 1.10454C12.6999 1.2915 12.1798 1.4185 11.6324 1.47538C12.1908 1.18418 12.6189 0.721396 12.8214 0.172198Z" transform="translate(3.4048 4.893268)" id="Forma-1-copy-2" fill="#FFFFFF" stroke="none" />
    </g>
</svg>