<?xml version="1.0" encoding="utf-8"?>
<svg width="42px" height="43px" viewBox="0 0 42 43" version="1.1"
    xmlns:xlink="http://www.w3.org/1999/xlink"
    xmlns="http://www.w3.org/2000/svg">
    <desc>Created with Lunacy</desc>
    <g id="ptrst">
        <path d="M20.9998 1.99C32.0455 1.99 41 10.9444 41 21.9901C41 33.0358 32.0455 41.9899 20.9998 41.9899C9.95421 41.9899 0.999684 33.0358 0.999684 21.9901C0.999684 10.9444 9.95421 1.99 20.9998 1.99Z" id="Rectangle-2-copy-59" fill="#CB2027" stroke="none" />
        <path d="M10.2219 18.5537C9.54636 21.9962 8.72196 25.2963 6.28051 27.0201C5.52727 21.8175 7.38737 17.9101 8.25118 13.7617C6.77866 11.3499 8.42854 6.4951 11.5356 7.69158C15.3588 9.16298 8.2249 16.6589 13.0136 17.5956C18.0137 18.5728 20.0544 9.15652 16.9539 6.09412C12.475 1.67257 3.91462 5.99326 4.96673 12.3241C5.2229 13.872 6.86734 14.3413 5.62361 16.4772C2.75738 15.8591 1.90123 13.6596 2.01182 10.7263C2.18918 5.92656 6.44474 2.56557 10.7145 2.10062C16.1131 1.51267 21.181 4.02865 21.8806 8.96955C22.6688 14.5461 19.4435 20.5857 13.6705 20.1512C12.105 20.0328 11.448 19.2788 10.2219 18.5537Z" transform="translate(9 7)" id="Forma-1-copy-5" fill="#FFFFFF" stroke="none" />
    </g>
</svg>